<?xml version="1.0" encoding="utf-8"?>
<!-- Generator: Adobe Illustrator 21.0.0, SVG Export Plug-In . SVG Version: 6.00 Build 0)  -->
<svg version="1.1" id="Layer_1" xmlns="http://www.w3.org/2000/svg" xmlns:xlink="http://www.w3.org/1999/xlink" x="0px" y="0px"
	 viewBox="0 0 751.9 1052.9" style="enable-background:new 0 0 751.9 1052.9;" xml:space="preserve">
<style type="text/css">
	.st0{opacity:0.2;fill:#FFFFFF;}
	.st1{opacity:0.2;}
	.st2{fill:#FFFFFF;}
	.st3{fill-rule:evenodd;clip-rule:evenodd;fill:#FFFFFF;}
	.st4{font-family:'MyriadPro-Regular';}
	.st5{font-size:95.6085px;}
</style>
<g>
	<path id="XMLID_537_" class="st0" d="M117.8,1008h45.5v6.5h-45.5V1008z M117.9,953.7l45.4,19.1v5.8l-45.4,19.1v-7.1l36.5-14.9
		l-36.5-14.9V953.7z"/>
	<path id="XMLID_1_" class="st0" d="M578.5,64.7H624v6.5h-45.5V64.7z M578.5,10.4l45.4,19.1v5.8l-45.4,19.1v-7.1l36.5-14.9
		l-36.5-14.9V10.4z"/>
	<g id="XMLID_585_" class="st1">
		<path id="XMLID_586_" class="st2" d="M734.7,831.8v10.4h-16.6c-0.8,5-1.5,10.7-2,17.2c-0.5,6.5-0.8,11.7-0.8,15.5
			c0,4.3,0.8,7.4,2.5,9.4c1.7,2,3.8,3,6.4,3c2.1,0,3.9-0.7,5.3-2c1.4-1.3,2.3-3.3,2.6-5.9h2.6c-0.9,7.1-2.7,12.3-5.4,15.3
			c-2.8,3-5.9,4.6-9.3,4.6c-3.5,0-6.5-1.7-8.9-5c-2.4-3.3-3.6-9.9-3.6-19.8c0-4.3,0.3-9.2,0.8-14.6c0.8-8.7,1.5-14.6,1.9-17.7h-16.8
			l-1.1,16.7c-0.6,7.1-1.5,14.2-2.8,21.3c-1.3,7.1-2.6,11.9-4,14.4c-1,1.8-1.9,3-3,3.7c-1,0.6-2.1,1-3.1,1c-1.9,0-3.4-0.6-4.6-1.8
			c-1.2-1.2-1.8-2.6-1.8-4.2c0-1.3,0.2-2.6,0.7-3.7c0.3-0.7,1.6-2.7,3.9-5.9c1.6-2.1,2.8-4.5,3.6-6.9c0.9-2.5,1.6-6.5,2.4-12.1
			c0.1-1,0.7-8.5,1.7-22.4h-2.1c-3.3,0-6.1,0.7-8.2,2c-2.1,1.3-4.3,4-6.7,8.1h-2.6c1.5-5.7,3.5-10.1,5.8-13.2c2.3-3.1,4.6-5.1,6.8-6
			c2.2-0.9,5.7-1.3,10.6-1.3H734.7z"/>
	</g>
	<g id="XMLID_579_" class="st1">
		<path id="XMLID_580_" class="st2" d="M67.5,797.5h3.9L55,900l-26.1-53.7L18.5,851l-1.8-3.4l15.8-7.9L53.8,883L67.5,797.5z"/>
	</g>
	<g id="XMLID_573_" class="st1">
		<path id="XMLID_574_" class="st2" d="M671.7,597.8l-4.9,24.3c-2.2,10.9-4.2,18.4-5.9,22.3c-1.7,3.9-4.1,7.1-7,9.4
			c-3,2.4-6,3.5-9.2,3.5c-2.4,0-4.3-0.6-5.6-1.7c-1.3-1.1-2-2.5-2-3.9c0-1.3,0.5-2.4,1.5-3.3c1-1,2.2-1.5,3.5-1.5
			c1.4,0,2.5,0.4,3.4,1.2c0.7,0.6,1.1,1.5,1.1,2.6c0,0.4-0.1,0.8-0.2,1.2c-0.3,0.8-0.4,1.3-0.4,1.5c0,0.3,0.1,0.5,0.4,0.7
			c0.3,0.2,0.6,0.3,1,0.3c0.9,0,1.8-0.5,2.5-1.5c0.8-1,1.2-2.5,1.2-4.5c0-0.8-0.1-2.5-0.3-5c-0.1-1.4-0.1-2.8-0.1-4
			c0-2.5,0.1-4.7,0.3-6.5c0.2-1.8,0.8-4.8,1.6-9.2l5.3-26H651l1.2-5.9c3.2,0,5.6-0.6,7.2-1.9c1.6-1.3,3.3-4.3,5-8.9
			c1.7-4.7,3.8-7.9,6.1-9.8c2.3-1.8,5.2-2.8,8.5-2.8c2.5,0,4.5,0.6,5.8,1.8c1.3,1.2,2,2.7,2,4.4c0,1.6-0.5,2.9-1.5,4
			c-1,1-2.2,1.6-3.7,1.6c-1.2,0-2.2-0.4-3.1-1.2c-0.8-0.8-1.2-1.7-1.2-2.8c0-0.7,0.4-1.9,1.3-3.6c0.2-0.3,0.2-0.6,0.2-0.8
			c0-0.3-0.1-0.5-0.4-0.7c-0.3-0.2-0.6-0.3-0.9-0.3c-1.2,0-2.3,0.6-3.2,1.7c-0.9,1.1-1.4,2.8-1.4,5c0,1.3,0.1,2.8,0.2,4.5
			c0.1,1.7,0.2,3,0.2,3.9c0,1.5-0.2,3.5-0.7,6h7.5l-1.2,5.9H671.7z"/>
	</g>
	<g id="XMLID_543_" class="st1">
		<path id="XMLID_544_" class="st2" d="M78.7,132H4.8l38.7-85.5L78.7,132z M64.2,126.9L39.6,67.3l-27.1,59.6H64.2z"/>
	</g>
	<path id="XMLID_531_" class="st0" d="M555.9,743.7l9.9-0.4l-7.4,25.5c-0.8,2.8-1.3,4.9-1.3,6.3c0,0.9,0.3,1.6,1,2.3
		c0.6,0.6,1.4,1,2.3,1c1.9,0,4.3-1.1,7.3-3.2c3-2.2,5.4-5.2,7.4-9.2c1.9-4,2.9-8.3,2.9-12.8c0-7.5-2.4-13.6-7.2-18.4
		c-4.8-4.8-11.1-7.2-18.8-7.2c-6.7,0-12.7,1.6-18.2,4.7c-5.4,3.1-9.8,7.7-13,13.6c-3.2,6-4.8,12.4-4.8,19.2c0,9.4,3,17,9,23
		c6,6,13.6,9,22.8,9c7.6,0,14.4-2,20.5-6.1c6-4.1,10.3-9.5,12.8-16.3h2.5c-3.3,8-8,14.1-14.2,18.3c-6.2,4.2-13.4,6.4-21.7,6.4
		c-10.4,0-19-3.4-25.8-10.1c-6.8-6.7-10.2-15.3-10.2-25.6c0-7.1,1.7-13.7,5-19.7c3.4-6.1,8.1-10.7,14.1-14
		c6.1-3.3,12.8-4.9,20.2-4.9c6,0,11.2,1.2,15.7,3.6c4.5,2.4,7.8,5.8,10.1,10.1c2.2,4.3,3.4,8.9,3.4,13.7c0,5.6-1.2,10.7-3.6,15.4
		c-2.4,4.6-5.4,8.1-9.1,10.3c-3.6,2.2-7.5,3.3-11.7,3.3c-2.7,0-4.7-0.7-6.1-2c-1.4-1.3-2.1-3-2.1-5.1c0-1.5,0.3-3.4,1-5.7
		c-2.2,3.7-4,6.3-5.2,7.8c-1.7,1.9-3.4,3.3-5.1,4.2c-1.1,0.6-2.3,0.9-3.7,0.9c-1.9,0-3.5-0.8-4.9-2.3c-1.3-1.5-2-3.8-2-6.7
		c0-3,0.4-6,1.3-8.9c0.9-2.9,2.1-5.6,3.6-8.2c1.5-2.6,3.3-4.9,5.3-6.9c2-2,4.2-3.7,6.7-5c1.3-0.7,2.6-1.1,4.1-1.1
		c1.5,0,2.8,0.5,3.8,1.4c1,0.9,1.7,2.6,2,5L555.9,743.7z M549.7,745.1c-1,0-2,0.6-3,1.7c-1.4,1.5-2.8,4.1-4.3,7.7
		c-2.8,6.5-4.1,11.7-4.1,15.6c0,1.2,0.3,2.1,0.8,2.8c0.5,0.7,1,1,1.6,1c0.5,0,1.3-0.4,2.2-1.1c1.4-1.1,2.9-2.8,4.4-5.4
		c1.6-2.5,2.9-5.3,3.9-8.4c1-3.1,1.5-5.9,1.5-8.5c0-1.9-0.4-3.3-1.1-4.3C551,745.4,550.4,745.1,549.7,745.1z"/>
	<g id="XMLID_512_" class="st1">
		<path id="XMLID_513_" class="st2" d="M123.9,742.9h16.3v-16.2h4.4v16.2h16.3v4.5h-16.3v16.1h-4.4v-16.1h-16.3V742.9z"/>
	</g>
	<g class="st1">
		<g>
			<path class="st3" d="M93,553.4c-2.5,2-8.4,0-15.2-5.4c1.1-2,2.3-4.3,3.3-6.7c3.5-1.1,6.7-2.3,9.7-3.7
				C94.5,545.3,95.4,551.4,93,553.4L93,553.4z M85.5,528.6c1.6,2.3,3,4.5,4.1,6.7c-2.2,1-4.6,2-7.2,2.8c0.7-1.8,1.4-3.7,2-5.7
				C84.8,531.2,85.1,529.9,85.5,528.6L85.5,528.6z M105.6,520.8c1,3.5-4.5,9-14,13.6c-1.6-2.8-3.4-5.6-5.5-8.5
				c0.8-3.4,1.3-6.7,1.6-9.8C97.4,515.6,104.7,517.6,105.6,520.8L105.6,520.8z M78.7,539.3c-2.8,0.8-5.6,1.5-8.3,2
				c-1.4-1.5-2.8-3.1-4.2-4.8c-1.3-1.6-2.6-3.3-3.8-4.9c0.4-1.8,0.9-3.6,1.4-5.5c0.6-1.8,1.2-3.6,1.9-5.2c1.9-0.7,3.9-1.4,5.9-2
				c1.6-0.5,3.2-0.9,4.7-1.2c1.7,1.7,3.4,3.6,5,5.6c0.6,0.8,1.2,1.5,1.8,2.3c-0.4,2-1,4-1.6,6.1C80.7,534.3,79.8,536.9,78.7,539.3
				L78.7,539.3z M75.3,546c-0.9-0.8-1.7-1.5-2.6-2.4c1.5-0.3,3-0.7,4.5-1.1C76.6,543.7,75.9,544.9,75.3,546L75.3,546z M64.8,555.4
				c-2.1-0.7-3.5-4.5-3.7-10c2.7-0.2,5.5-0.6,8.4-1.1c1.4,1.5,2.9,2.8,4.3,4C70.5,553.3,67.1,556.1,64.8,555.4L64.8,555.4z
				 M61.7,535.5c0.4,0.5,0.8,1.1,1.3,1.6c1.4,1.7,2.7,3.2,4.1,4.7c-2.1,0.3-4.1,0.5-6.1,0.6C61.1,540.2,61.3,537.9,61.7,535.5
				L61.7,535.5z M70.3,511.9c1.2,1,2.4,2.1,3.7,3.3c-0.9,0.2-1.8,0.5-2.7,0.7c-1.3,0.4-2.6,0.8-3.8,1.2
				C68.3,515.2,69.3,513.5,70.3,511.9L70.3,511.9z M81.2,502.4c2.2,0.7,3.5,4.8,3.4,10.8c-2.6,0.3-5.2,0.7-8,1.3
				c-1.7-1.8-3.3-3.4-5-4.9C75.3,504.6,78.9,501.7,81.2,502.4L81.2,502.4z M83.7,522.7c-0.5-0.7-1-1.3-1.6-2c-1-1.3-2.1-2.5-3.1-3.6
				c1.9-0.3,3.7-0.6,5.5-0.8C84.4,518.3,84.1,520.5,83.7,522.7L83.7,522.7z M45,538.5c-0.9-3,3.2-7.9,10.3-12.4
				c1.3,2.2,2.8,4.4,4.4,6.6c-0.8,3.4-1.3,6.7-1.5,9.7C50.9,542.6,45.8,541.2,45,538.5L45,538.5z M60.6,528.9
				c-1-1.5-1.9-2.9-2.7-4.4c1.5-0.8,3.1-1.6,4.8-2.4c-0.4,1.1-0.7,2.1-1.1,3.3C61.3,526.6,61,527.7,60.6,528.9L60.6,528.9z
				 M53.1,504.4c2.4-1.9,8.3,0.5,15,5.7c-1.4,2.5-2.7,5.3-3.9,8.2c-2.7,1.1-5.3,2.3-7.6,3.5C52.2,513.5,50.6,506.5,53.1,504.4
				L53.1,504.4z M109.7,519.6c-1.4-4.7-10.2-7.3-21.7-6.6c0.3-8.4-1.4-14.4-5.2-15.6c-3.8-1.2-8.8,3-13.3,10.3
				c-8.1-6.7-15.4-9.5-19.1-6.6c-3.9,3.2-2.2,12,3.4,22.3c-9,5.4-14.1,11.8-12.8,16.2c1.2,4.1,7.8,6.1,17.1,5.8
				c-0.2,8,1.5,13.8,5.2,14.9c3.8,1.2,8.7-2.9,13.2-10.1c8.2,6.5,15.6,9.2,19.2,6.3c3.6-2.9,2.1-10.7-2.7-20
				C104.2,531.3,111.1,524.6,109.7,519.6L109.7,519.6z"/>
		</g>
		<path class="st3" d="M74.5,525.3c-2.4-0.8-5,0.6-5.8,3c-0.8,2.4,0.6,5,3,5.8c2.4,0.8,5-0.6,5.8-3C78.3,528.6,77,526,74.5,525.3
			L74.5,525.3z"/>
	</g>
	<g class="st1">
		<path class="st2" d="M710.3,163c0,0-6.3,6.5-6.3,10.5c0,4,2.8,7.2,6.3,7.2c3.5,0,6.3-3.2,6.3-7.2C716.7,169.5,710.3,163,710.3,163
			z M710.3,179.5c-2.9,0-5.3-2.6-5.3-5.8h10.5C715.6,176.8,713.2,179.5,710.3,179.5z"/>
		<path class="st2" d="M702.2,183.8c0,0-3.7,3.8-3.7,6.1c0,2.3,1.7,4.2,3.7,4.2c2,0,3.7-1.9,3.7-4.2
			C705.9,187.6,702.2,183.8,702.2,183.8z M702.2,193.4c-1.7,0-3.1-1.5-3.1-3.4h6.2C705.3,191.9,703.9,193.4,702.2,193.4z"/>
		<path class="st2" d="M669.4,170.5c-2.6,0-4.6,2.1-4.6,4.6h9.2C674,172.6,672,170.5,669.4,170.5z"/>
		<path class="st2" d="M700.3,158.5l-30.9-20.9c-1.4-0.9-3.2-0.6-4.1,0.8c-0.9,1.4-0.6,3.2,0.8,4.1l1,0.7l-47.8,71
			c-5.4,8-3.3,18.9,4.7,24.3c8,5.4,18.9,3.3,24.3-4.7l47.8-71l0.9,0.6c1.4,0.9,3.2,0.6,4.1-0.8C702,161.3,701.7,159.4,700.3,158.5z
			 M644.4,231.2c-3.9,5.8-11.9,7.4-17.7,3.4c-5.8-3.9-7.4-11.9-3.4-17.7l47.8-71l21.2,14.3L644.4,231.2z"/>
		<path class="st2" d="M674,175.1c0,2.6-2.1,4.6-4.6,4.6c-2.6,0-4.6-2.1-4.6-4.6h-10.2L625.8,218c-3.1,4.6-1.9,10.8,2.7,13.9
			c4.6,3.1,10.8,1.9,13.9-2.7l36.6-54.1H674z M660.1,185.2c-1.4,0-2.5-1.1-2.5-2.5c0-1.4,1.1-2.5,2.5-2.5c1.4,0,2.5,1.1,2.5,2.5
			C662.6,184,661.5,185.2,660.1,185.2z M663.7,191.7c-1,0-1.8-0.8-1.8-1.8c0-1,0.8-1.8,1.8-1.8c1,0,1.8,0.8,1.8,1.8
			C665.5,190.9,664.7,191.7,663.7,191.7z"/>
	</g>
	<g class="st1">
		<g>
			<path class="st2" d="M181,883.3c1.7-0.5,2.8-2.2,2.3-4l0,0c-1.2-4.6-1.8-8.8-1.8-12.4l0,0c0.1-8,2.7-13.4,8.4-17.8l0,0
				c5.7-4.4,15.1-7.4,28.1-9l0,0c16.7-2,26.2-9.8,31-17.9l0,0c4.8-8,5.2-16,5.2-18.6l0,0c0-0.6,0-0.9,0-1l0,0h0
				c-0.1-1.8-1.7-3.2-3.5-3l0,0c-1.8,0.1-3.2,1.7-3,3.5l0,0c0,0,0,0,0,0.1l0,0c0,0.1,0,0.2,0,0.5l0,0c0,2-0.4,8.8-4.3,15.3l0,0
				c-3.9,6.5-11.1,12.9-26.2,14.8l0,0c-13.6,1.7-24,4.8-31.2,10.3l0,0c-7.3,5.4-11,13.4-11,23l0,0c0,4.3,0.7,9,2,14l0,0
				c0.4,1.5,1.7,2.4,3.2,2.4l0,0C180.5,883.5,180.8,883.4,181,883.3L181,883.3z"/>
		</g>
		<g>
			<path class="st2" d="M222.7,893c5.5-6.5,8.8-13.8,8.7-21.7l0,0c0-11.4-6.4-23.4-19.4-37.1l0,0c-8-8.4-10.4-17-10.4-24.4l0,0
				c0-7.4,2.6-13.7,4.5-16.7l0,0v0c1-1.5,0.6-3.5-0.9-4.5l0,0c-1.5-1-3.5-0.6-4.5,0.9l0,0c-2.7,4.1-5.6,11.3-5.6,20.2l0,0
				c0,8.8,3,19.3,12.2,28.9l0,0c12.5,13.2,17.7,23.9,17.6,32.6l0,0c0,6.2-2.4,11.8-7.2,17.5l0,0c-1.2,1.4-1,3.4,0.4,4.6l0,0
				c0.6,0.5,1.4,0.8,2.1,0.8l0,0C221.2,894.2,222.1,893.8,222.7,893L222.7,893z"/>
		</g>
		<g>
			<path class="st2" d="M214.2,800.3c-0.6,1.2,0,2.7,1.2,3.3l17.7,8.3c1.2,0.6,2.7,0,3.3-1.2l0,0c0.6-1.2,0-2.7-1.2-3.3l-17.7-8.3
				C216.2,798.6,214.8,799.1,214.2,800.3L214.2,800.3z"/>
			<path class="st2" d="M208.7,818.2c-0.6,1.2,0,2.7,1.2,3.3l13,6.1c1.2,0.6,2.7,0,3.3-1.2l0,0c0.6-1.2,0-2.7-1.2-3.3l-13-6.1
				C210.7,816.5,209.2,817,208.7,818.2L208.7,818.2z"/>
			<path class="st2" d="M207.1,807.3c-0.6,1.2,0,2.7,1.2,3.3l24,11.2c1.2,0.6,2.7,0,3.3-1.2l0,0c0.6-1.2,0-2.7-1.2-3.3l-24-11.2
				C209.1,805.5,207.7,806,207.1,807.3L207.1,807.3z"/>
		</g>
		<g>
			<path class="st2" d="M189.2,868c0.5-1.2,2-1.8,3.2-1.3l18,7.7c1.2,0.5,1.8,2,1.3,3.2l0,0c-0.5,1.2-2,1.8-3.2,1.3l-18-7.7
				C189.2,870.7,188.7,869.3,189.2,868L189.2,868z"/>
			<path class="st2" d="M198.9,852c0.5-1.2,2-1.8,3.2-1.3l13.2,5.7c1.2,0.5,1.8,2,1.3,3.2l0,0c-0.5,1.2-2,1.8-3.2,1.3l-13.2-5.7
				C198.9,854.7,198.3,853.2,198.9,852L198.9,852z"/>
			<path class="st2" d="M189.7,858.2c0.5-1.2,2-1.8,3.2-1.3l24.3,10.4c1.2,0.5,1.8,2,1.3,3.2l0,0c-0.5,1.2-2,1.8-3.2,1.3L191,861.4
				C189.7,860.8,189.1,859.4,189.7,858.2L189.7,858.2z"/>
		</g>
	</g>
	<g class="st1">
		<path class="st2" d="M266.9,1048.2c0-0.4,0.1-1.8,0.4-2.6c0.4-0.9,1.5-1.7,1.5-1.7l39.1,0c0,0,1.1,0.9,1.4,1.7
			c0.3,0.7,0.4,2.1,0.4,2.5H266.9z"/>
		<path class="st2" d="M307.8,1044.1c0.2,0.2,1.1,1,1.3,1.7c0.2,0.6,0.4,1.9,0.4,2.4H267c0-0.5,0.1-1.7,0.4-2.4
			c0.3-0.7,1.2-1.5,1.4-1.6H307.8 M307.9,1043.9h-39.2c0,0-1.1,0.8-1.5,1.7c-0.4,0.9-0.4,2.7-0.4,2.7h43c0,0-0.1-1.8-0.4-2.6
			C309,1044.8,307.9,1043.9,307.9,1043.9z"/>
		<path class="st2" d="M269,1043.2c-1.8-2.4-2.8-5.9-2.6-9.3c0.2-3.1,2.3-6.3,4-8.9c0.2-0.3,0.4-0.7,0.6-1h34.9
			c1.5,2.2,3.9,6.5,4.2,10.6c0.2,3.3-0.6,6.1-2.6,8.6H269z"/>
		<path class="st2" d="M305.9,1024.1c1.5,2.2,3.9,6.5,4.1,10.5c0.2,3.2-0.6,6-2.5,8.5H269c-1.8-2.4-2.8-5.8-2.5-9.2
			c0.2-3.1,2.3-6.3,3.9-8.9c0.2-0.3,0.4-0.6,0.6-0.9H305.9 M306,1023.9h-35c-1.8,2.8-4.4,6.4-4.6,10c-0.3,3.6,0.8,7.1,2.6,9.4h38.7
			c1.8-2.3,2.8-5.2,2.6-8.7C310,1030.9,308,1026.9,306,1023.9z"/>
		<path class="st2" d="M271.1,1023.1c-0.2,0-0.6-0.3-0.9-0.7c-0.2-0.3-0.4-0.7-0.3-1.2c0.3-1.3,1.5-1.6,1.9-1.6h33.6
			c0.4,0,1.6,0.3,1.9,1.6c0.1,0.5-0.1,1-0.3,1.2c-0.3,0.4-0.7,0.7-0.9,0.7c-0.1,0-2.4,0-5.4,0
			C300.7,1023.1,271.2,1023.1,271.1,1023.1z"/>
		<path class="st2" d="M305.4,1019.7c0.4,0,1.5,0.3,1.8,1.5c0.1,0.5-0.1,0.9-0.3,1.2c-0.3,0.4-0.7,0.6-0.9,0.6c-0.1,0-1.9,0-5.4,0
			h-7l-5.1,0l-5.1,0h-7c-3.5,0-5.3,0-5.4,0c-0.2,0-0.6-0.2-0.9-0.6c-0.2-0.3-0.4-0.7-0.3-1.2c0.3-1.3,1.4-1.5,1.8-1.5h15.3h3H305.4
			 M305.4,1019.5c-0.3,0-10.2,0-15.3,0c0,0-1.2,0-3,0c-5.1,0-15,0-15.3,0c-0.4,0-1.7,0.3-2,1.7c-0.3,1.1,0.8,2,1.3,2
			c0.1,0,2.4,0,5.4,0c4,0,9.2,0,12.1,0c2.9,0,8.1,0,12.1,0c3,0,5.3,0,5.4,0c0.5,0,1.6-0.9,1.3-2
			C307.1,1019.8,305.8,1019.5,305.4,1019.5z"/>
		<path class="st2" d="M272.3,1018.9c0.5-1.2,1-2.3,1.5-3.4c3.6-8,6.5-14.3,7.5-30.7h13.9c1,15.6,4,22,7.5,29.5
			c0.7,1.5,1.4,3,2.1,4.7H272.3z"/>
		<path class="st2" d="M295.1,984.8c1,15.5,4,22,7.5,29.4c0.7,1.4,1.4,2.9,2.1,4.5h-32.3c0.5-1.1,1-2.2,1.5-3.3
			c3.6-8,6.5-14.3,7.5-30.7H295.1 M295.3,984.6h-14.1c-1.2,18.9-4.7,24.3-9.1,34.3H305C300.7,1009,296.5,1003.5,295.3,984.6z"/>
		<path class="st3" d="M288.6,938.6c-1.3,0-2.6-0.4-3.8-1c0.2-0.2,0.5-0.4,0.7-0.6c1.7-1.8,2.4-3.8,1.6-4.6
			c-0.2-0.2-0.5-0.3-0.9-0.3c-1,0-2.4,0.8-3.6,2c-0.2,0.2-0.4,0.4-0.6,0.7c-0.6-1.1-0.9-2.4-0.9-3.7c0-1.4,0.3-2.7,1-3.9
			c0.2,0.2,0.4,0.5,0.7,0.7c1.2,1.2,2.6,2,3.6,2c0.4,0,0.7-0.1,0.9-0.3c0.8-0.8,0.1-2.9-1.6-4.6c-0.2-0.2-0.5-0.5-0.7-0.6
			c1.1-0.6,2.4-1,3.6-1c1.3,0,2.5,0.3,3.6,1c-0.2,0.2-0.4,0.4-0.6,0.6c-1.7,1.8-2.4,3.8-1.6,4.6c0.2,0.2,0.5,0.3,0.9,0.3
			c1,0,2.4-0.8,3.6-2c0.2-0.2,0.4-0.4,0.6-0.6c0.7,1.2,1,2.5,1,3.8c0,1.3-0.3,2.6-1,3.8c-0.2-0.3-0.4-0.5-0.7-0.7
			c-1.2-1.2-2.6-2-3.6-2c-0.4,0-0.7,0.1-0.9,0.3c-0.8,0.8-0.1,2.9,1.6,4.6c0.2,0.2,0.5,0.5,0.7,0.7
			C291.2,938.2,289.9,938.6,288.6,938.6z"/>
		<path class="st2" d="M288.6,923.3c1.2,0,2.4,0.3,3.5,0.9c-0.2,0.2-0.3,0.3-0.5,0.5c-1.8,1.8-2.5,3.9-1.6,4.7
			c0.2,0.2,0.6,0.4,1,0.4c1,0,2.4-0.8,3.7-2c0.2-0.2,0.3-0.3,0.5-0.5c0.6,1.1,0.9,2.4,0.9,3.7c0,1.3-0.3,2.5-0.9,3.6
			c-0.2-0.2-0.4-0.4-0.6-0.6c-1.2-1.2-2.6-2-3.7-2c-0.4,0-0.8,0.1-1,0.4c-0.8,0.9-0.1,3,1.6,4.7c0.2,0.2,0.4,0.4,0.6,0.6
			c-1.1,0.6-2.3,0.9-3.5,0.9c-1.3,0-2.5-0.3-3.6-1c0.2-0.2,0.4-0.4,0.6-0.5c1.8-1.8,2.5-3.9,1.6-4.8c-0.2-0.2-0.6-0.4-1-0.4
			c-1,0-2.4,0.8-3.7,2c-0.2,0.2-0.4,0.4-0.5,0.6c-0.6-1.1-0.9-2.3-0.9-3.5c0-1.3,0.3-2.6,0.9-3.7c0.2,0.2,0.4,0.4,0.6,0.6
			c1.2,1.2,2.6,2,3.7,2c0.4,0,0.8-0.1,1-0.4c0.9-0.9,0.1-3-1.6-4.8c-0.2-0.2-0.4-0.4-0.6-0.5C286.2,923.6,287.4,923.3,288.6,923.3
			 M288.6,923.1c-1.4,0-2.7,0.4-3.8,1c0.3,0.2,0.5,0.5,0.8,0.7c1.7,1.7,2.4,3.7,1.6,4.5c-0.2,0.2-0.5,0.3-0.8,0.3
			c-0.9,0-2.3-0.7-3.5-2c-0.3-0.3-0.5-0.6-0.7-0.8c-0.7,1.2-1.1,2.6-1.1,4c0,1.4,0.4,2.8,1,3.9c0.2-0.3,0.4-0.5,0.7-0.8
			c1.2-1.2,2.6-2,3.5-2c0.4,0,0.6,0.1,0.9,0.3c0.8,0.8,0,2.8-1.6,4.5c-0.3,0.3-0.5,0.5-0.8,0.7c1.1,0.7,2.5,1.1,3.9,1.1
			c1.4,0,2.8-0.4,3.9-1.1c-0.3-0.2-0.6-0.5-0.8-0.8c-1.7-1.7-2.4-3.7-1.6-4.5c0.2-0.2,0.5-0.3,0.8-0.3c0.9,0,2.3,0.7,3.5,2
			c0.3,0.3,0.5,0.6,0.7,0.9c0.7-1.2,1.1-2.5,1.1-4c0-1.5-0.4-2.8-1.1-4c-0.2,0.2-0.4,0.5-0.6,0.7c-1.2,1.2-2.6,2-3.5,2
			c-0.4,0-0.6-0.1-0.9-0.3c-0.8-0.8,0-2.8,1.6-4.5c0.2-0.2,0.5-0.4,0.7-0.6C291.3,923.5,290,923.1,288.6,923.1z"/>
		<path class="st2" d="M276.6,983.9c-0.3,0-2.3-1.2-2.1-3.1c0.2-2.4,2.4-3.3,2.6-3.3h2l0.6-11.3c-0.1-0.2-6.9-10.4-8-12.1
			c-0.7-1.1-1.5-2.7-1.5-4.4c0-3.6,2.8-6.5,6.3-6.5l3.8,0v-1.7c0-1,0.8-1.8,1.7-1.8h12.3c1,0,1.7,0.8,1.7,1.8v1.7l3.8,0
			c3.5,0,6.3,2.9,6.3,6.5c0,1.7-0.8,3.3-1.5,4.4c-1.1,1.7-7.8,11.7-7.9,11.8l0.5,11.6h2.1c0.3,0,2.3,1.1,2.5,3.4c0.2,2-1.9,2.9-2,3
			c-0.1,0-1.8,0-4,0C296,983.9,276.7,983.9,276.6,983.9z"/>
		<path class="st2" d="M294.4,939.8c0.9,0,1.6,0.8,1.6,1.7v1.6v0.2h0.2h1.8l1.8,0c3.4,0,6.2,2.9,6.2,6.4c0,1.7-0.8,3.3-1.4,4.3
			c-1.1,1.7-7.8,11.7-7.9,11.8l0,0.1l0,0.1l0.5,11.5l0,0.2h0.2h2c0.2,0,2.2,1,2.4,3.3c0.2,1.9-1.8,2.8-1.9,2.9c-0.1,0-3,0-4,0
			l-4.9,0h-3.3h-3.2l-4.4,0c-0.9,0-3.5,0-3.6,0c-0.3,0-2.2-1.2-2.1-3c0.2-2.3,2.3-3.2,2.5-3.2h1.9h0.2l0-0.2l0.6-11.2l0-0.1l0-0.1
			c-0.1-0.1-6.9-10.3-8-12.1c-0.7-1.1-1.4-2.7-1.4-4.3c0-3.5,2.8-6.4,6.2-6.4l1.8,0h1.8h0.2v-0.2v-1.6c0-0.9,0.7-1.7,1.6-1.7H294.4
			 M294.4,939.6c-1.6,0-10.3,0-12.3,0c-1,0-1.8,0.8-1.8,1.9c0,0.4,0,1.6,0,1.6c-1,0-2.6,0-3.7,0c-3.6,0-6.4,2.9-6.4,6.6
			c0,1.6,0.7,3.2,1.5,4.5c1.1,1.7,8,12.1,8,12.1l-0.6,11.2c-1.1,0-1.9,0-1.9,0c-0.3,0-2.5,0.9-2.7,3.4c-0.2,2,1.9,3.2,2.2,3.2
			c0.1,0,1.6,0,3.6,0c2.5,0,5.8,0,7.6,0c1.8,0,5.4,0,8.2,0c2.2,0,3.9,0,4,0c0.3,0,2.3-1.1,2.1-3.1c-0.2-2.5-2.3-3.5-2.6-3.5
			c-0.1,0-0.9,0-2,0l-0.5-11.5c0,0,6.8-10.1,7.9-11.8c0.8-1.2,1.5-2.9,1.5-4.5c0-3.6-2.9-6.6-6.4-6.6c-1,0-2.6,0-3.7,0
			c0,0,0-1.2,0-1.6C296.3,940.4,295.5,939.6,294.4,939.6z"/>
		<path class="st2" d="M266.9,1048.2c0-0.4,0.1-1.8,0.4-2.6c0.4-0.9,1.5-1.7,1.5-1.7l39.1,0c0,0,1.1,0.9,1.4,1.7
			c0.3,0.7,0.4,2.1,0.4,2.5H266.9z"/>
		<path class="st2" d="M307.8,1044.1c0.2,0.2,1.1,1,1.3,1.7c0.2,0.6,0.4,1.9,0.4,2.4H267c0-0.5,0.1-1.7,0.4-2.4
			c0.3-0.7,1.2-1.5,1.4-1.6H307.8 M307.9,1043.9h-39.2c0,0-1.1,0.8-1.5,1.7c-0.4,0.9-0.4,2.7-0.4,2.7h43c0,0-0.1-1.8-0.4-2.6
			C309,1044.8,307.9,1043.9,307.9,1043.9z"/>
		<path class="st2" d="M269,1043.2c-1.8-2.4-2.8-5.9-2.6-9.3c0.2-3.1,2.3-6.3,4-8.9c0.2-0.3,0.4-0.7,0.6-1h34.9
			c1.5,2.2,3.9,6.5,4.2,10.6c0.2,3.3-0.6,6.1-2.6,8.6H269z"/>
		<path class="st2" d="M305.9,1024.1c1.5,2.2,3.9,6.5,4.1,10.5c0.2,3.2-0.6,6-2.5,8.5H269c-1.8-2.4-2.8-5.8-2.5-9.2
			c0.2-3.1,2.3-6.3,3.9-8.9c0.2-0.3,0.4-0.6,0.6-0.9H305.9 M306,1023.9h-35c-1.8,2.8-4.4,6.4-4.6,10c-0.3,3.6,0.8,7.1,2.6,9.4h38.7
			c1.8-2.3,2.8-5.2,2.6-8.7C310,1030.9,308,1026.9,306,1023.9z"/>
		<path class="st2" d="M271.1,1023.1c-0.2,0-0.6-0.3-0.9-0.7c-0.2-0.3-0.4-0.7-0.3-1.2c0.3-1.3,1.5-1.6,1.9-1.6h33.6
			c0.4,0,1.6,0.3,1.9,1.6c0.1,0.5-0.1,1-0.3,1.2c-0.3,0.4-0.7,0.7-0.9,0.7c-0.1,0-2.4,0-5.4,0
			C300.7,1023.1,271.2,1023.1,271.1,1023.1z"/>
		<path class="st2" d="M305.4,1019.7c0.4,0,1.5,0.3,1.8,1.5c0.1,0.5-0.1,0.9-0.3,1.2c-0.3,0.4-0.7,0.6-0.9,0.6c-0.1,0-1.9,0-5.4,0
			h-7l-5.1,0l-5.1,0h-7c-3.5,0-5.3,0-5.4,0c-0.2,0-0.6-0.2-0.9-0.6c-0.2-0.3-0.4-0.7-0.3-1.2c0.3-1.3,1.4-1.5,1.8-1.5h15.3h3H305.4
			 M305.4,1019.5c-0.3,0-10.2,0-15.3,0c0,0-1.2,0-3,0c-5.1,0-15,0-15.3,0c-0.4,0-1.7,0.3-2,1.7c-0.3,1.1,0.8,2,1.3,2
			c0.1,0,2.4,0,5.4,0c4,0,9.2,0,12.1,0c2.9,0,8.1,0,12.1,0c3,0,5.3,0,5.4,0c0.5,0,1.6-0.9,1.3-2
			C307.1,1019.8,305.8,1019.5,305.4,1019.5z"/>
		<path class="st2" d="M272.3,1018.9c0.5-1.2,1-2.3,1.5-3.4c3.6-8,6.5-14.3,7.5-30.7h13.9c1,15.6,4,22,7.5,29.5
			c0.7,1.5,1.4,3,2.1,4.7H272.3z"/>
		<path class="st2" d="M295.1,984.8c1,15.5,4,22,7.5,29.4c0.7,1.4,1.4,2.9,2.1,4.5h-32.3c0.5-1.1,1-2.2,1.5-3.3
			c3.6-8,6.5-14.3,7.5-30.7H295.1 M295.3,984.6h-14.1c-1.2,18.9-4.7,24.3-9.1,34.3H305C300.7,1009,296.5,1003.5,295.3,984.6z"/>
		<path class="st2" d="M276.6,983.9c-0.3,0-2.3-1.2-2.1-3.1c0.2-2.4,2.4-3.3,2.6-3.3h2l0.6-11.3c-0.1-0.2-6.9-10.4-8-12.1
			c-0.7-1.1-1.5-2.7-1.5-4.4c0-3.6,2.8-6.5,6.3-6.5l3.8,0v-1.7c0-1,0.8-1.8,1.7-1.8h12.3c1,0,1.7,0.8,1.7,1.8v1.7l3.8,0
			c3.5,0,6.3,2.9,6.3,6.5c0,1.7-0.8,3.3-1.5,4.4c-1.1,1.7-7.8,11.7-7.9,11.8l0.5,11.6h2.1c0.3,0,2.3,1.1,2.5,3.4c0.2,2-1.9,2.9-2,3
			c-0.1,0-1.8,0-4,0C296,983.9,276.7,983.9,276.6,983.9z"/>
		<path class="st2" d="M294.4,939.8c0.9,0,1.6,0.8,1.6,1.7v1.6v0.2h0.2h1.8l1.8,0c3.4,0,6.2,2.9,6.2,6.4c0,1.7-0.8,3.3-1.4,4.3
			c-1.1,1.7-7.8,11.7-7.9,11.8l0,0.1l0,0.1l0.5,11.5l0,0.2h0.2h2c0.2,0,2.2,1,2.4,3.3c0.2,1.9-1.8,2.8-1.9,2.9c-0.1,0-3,0-4,0
			l-4.9,0h-3.3h-3.2l-4.4,0c-0.9,0-3.5,0-3.6,0c-0.3,0-2.2-1.2-2.1-3c0.2-2.3,2.3-3.2,2.5-3.2h1.9h0.2l0-0.2l0.6-11.2l0-0.1l0-0.1
			c-0.1-0.1-6.9-10.3-8-12.1c-0.7-1.1-1.4-2.7-1.4-4.3c0-3.5,2.8-6.4,6.2-6.4l1.8,0h1.8h0.2v-0.2v-1.6c0-0.9,0.7-1.7,1.6-1.7H294.4
			 M294.4,939.6c-1.6,0-10.3,0-12.3,0c-1,0-1.8,0.8-1.8,1.9c0,0.4,0,1.6,0,1.6c-1,0-2.6,0-3.7,0c-3.6,0-6.4,2.9-6.4,6.6
			c0,1.6,0.7,3.2,1.5,4.5c1.1,1.7,8,12.1,8,12.1l-0.6,11.2c-1.1,0-1.9,0-1.9,0c-0.3,0-2.5,0.9-2.7,3.4c-0.2,2,1.9,3.2,2.2,3.2
			c0.1,0,1.6,0,3.6,0c2.5,0,5.8,0,7.6,0c1.8,0,5.4,0,8.2,0c2.2,0,3.9,0,4,0c0.3,0,2.3-1.1,2.1-3.1c-0.2-2.5-2.3-3.5-2.6-3.5
			c-0.1,0-0.9,0-2,0l-0.5-11.5c0,0,6.8-10.1,7.9-11.8c0.8-1.2,1.5-2.9,1.5-4.5c0-3.6-2.9-6.6-6.4-6.6c-1,0-2.6,0-3.7,0
			c0,0,0-1.2,0-1.6C296.3,940.4,295.5,939.6,294.4,939.6z"/>
	</g>
	<path id="XMLID_340_" class="st0" d="M719.6,477.8c-0.1-2-0.3-3.6-0.6-4.6c-0.3-1.1-1-2.7-2.2-4.9c-1.1-2.2-1.7-3.9-1.7-5.1
		c0-1.6,0.6-3,1.7-4.3c1.1-1.2,2.4-1.8,3.8-1.8c1.5,0,2.8,0.6,3.9,1.7c1.1,1.1,1.7,2.6,1.7,4.4c0,1.4-0.5,3.2-1.6,5.2
		c-1.1,2-1.8,3.6-2.1,4.6c-0.3,1.1-0.5,2.7-0.7,4.8c2-0.8,3.4-1.5,4.2-2.1c0.8-0.6,2.1-1.8,3.7-3.5c2.2-2.3,4.3-3.5,6.4-3.5
		c1.5,0,2.8,0.5,3.9,1.5c1.1,1,1.6,2.2,1.6,3.6c0,1.5-0.6,2.8-1.9,4c-1.3,1.2-3,1.7-5,1.7c-0.7,0-1.9-0.1-3.7-0.2
		c-0.8,0-1.8-0.1-2.7-0.1c-1.3,0-3.3,0.1-5.9,0.2c1.5,1.7,2.7,2.9,3.5,3.5c0.8,0.6,2.3,1.5,4.4,2.5c2.1,1.1,3.6,2.2,4.5,3.4
		c0.7,0.9,1,2,1,3.4c0,1.5-0.5,2.8-1.5,3.8c-1,1-2.2,1.5-3.7,1.5c-1.5,0-2.9-0.6-4.1-1.9c-1.2-1.2-2-3.5-2.5-6.6
		c-0.3-2.1-0.6-3.6-0.9-4.5c-0.3-0.9-1-2.3-2.1-4.2c-1.2,1.9-1.9,3.3-2.3,4.3c-0.4,1-0.7,2.5-1,4.4c-0.5,3.2-1.3,5.4-2.4,6.6
		c-1.2,1.2-2.5,1.8-4,1.8c-1.4,0-2.7-0.5-3.7-1.5c-1-1-1.5-2.2-1.5-3.5c0-1.4,0.4-2.7,1.2-3.8c0.8-1.1,2.2-2.2,4.4-3.4
		c2.1-1.2,3.6-2.1,4.4-2.7c0.8-0.6,2-1.7,3.5-3.2l-5.6-0.2c-1,0-1.9,0-2.8,0.1c-2.1,0.1-3.5,0.2-4.3,0.2c-2,0-3.6-0.6-4.9-1.7
		c-1.3-1.1-1.9-2.5-1.9-4c0-1.4,0.5-2.7,1.5-3.7c1-1,2.3-1.5,3.9-1.5c2.2,0,4.3,1.1,6.4,3.2c2,2.1,3.3,3.4,3.9,3.8
		C716.3,476.3,717.7,477,719.6,477.8z"/>
	<text transform="matrix(1 0 0 1 75.3519 290.4061)" class="st0 st4 st5">7</text>
</g>
</svg>
