<?xml version="1.0" encoding="utf-8"?>
<!-- Generator: Adobe Illustrator 21.0.0, SVG Export Plug-In . SVG Version: 6.00 Build 0)  -->
<svg version="1.1" id="Layer_1" xmlns="http://www.w3.org/2000/svg" xmlns:xlink="http://www.w3.org/1999/xlink" x="0px" y="0px"
	 viewBox="0 0 657.8 84.3" style="enable-background:new 0 0 657.8 84.3;" xml:space="preserve">
<style type="text/css">
	.st0{fill:#061F1A;}
	.st1{fill:#FFFFFF;}
</style>
<g>
	<g>
		<path class="st0" d="M8.1,73.5V17.1c0-2.3,0.8-4.2,2.3-5.5c1.5-1.3,3.4-2,5.7-2l19.3-0.1c5.2,0.1,9.7,1.7,13.4,4.9
			c3.7,3.2,5.5,7.5,5.5,12.9c0,3.5-0.8,6.4-2.3,8.8c-1.5,2.4-3.9,4.4-7.1,5.9v0.1c4.3,0.7,7.9,2.6,10.9,5.8c2.9,3.2,4.4,7,4.4,11.4
			c0,7.1-2.1,12.5-6.4,16.2c-4.3,3.7-9.9,5.5-16.9,5.5H16.1c-2.3,0-4.2-0.7-5.7-2c-1.5-1.3-2.3-3.2-2.3-5.5V73.5z M23.2,37.9H31
			c2.5,0.1,4.5-0.6,5.9-2c1.5-1.4,2.2-3.4,2.2-5.8c0-2.3-0.8-4.1-2.4-5.3s-3.5-1.8-5.7-1.8l-7.8-0.1V37.9z M23.2,67.8H35
			c2.7,0.1,5-0.7,6.8-2.2c1.8-1.5,2.7-3.7,2.7-6.5c0-2.4-0.9-4.3-2.7-5.8c-1.8-1.5-4.4-2.2-8-2.2H23.2V67.8z"/>
		<path class="st0" d="M65.8,73.9V17.4c0-2.3,0.7-4.2,2-5.6c1.3-1.4,3.2-2.1,5.7-2.1l17.7-0.1c7.8,0.1,13.9,1.9,18.3,5.5
			c4.5,3.6,6.7,9.4,6.7,17.3c0,5.5-1.8,9.8-5.4,13c-3.6,3.2-8,5.2-13.2,6l17.1,18.2c0.7,0.8,1.3,1.6,1.6,2.3
			c0.3,0.7,0.5,1.5,0.5,2.2c0,1.9-0.7,3.7-2.1,5.3s-3.2,2.4-5.4,2.4c-0.4,0-0.8,0-1.3-0.1c-0.4-0.1-0.9-0.2-1.3-0.3
			c-0.6-0.1-1.2-0.4-1.8-0.8s-1.1-0.8-1.6-1.4L81.1,52.1h-0.2v21.8c0,2.5-0.7,4.5-2.2,5.8c-1.4,1.3-3.2,2-5.4,2
			c-2.1,0-3.9-0.7-5.4-2c-1.4-1.3-2.2-3.2-2.2-5.7V73.9z M80.9,41.2h10.4c2.7,0.1,5-0.7,6.7-2.3c1.7-1.6,2.6-3.8,2.6-6.6
			c0-2.9-0.9-5.1-2.6-6.6c-1.7-1.5-4-2.3-6.7-2.3l-10.4-0.1V41.2z"/>
		<path class="st0" d="M118.1,71.4l20.2-54.7c0.9-2.3,2.2-4.2,4.1-5.8c1.9-1.6,4.1-2.4,6.6-2.4c2.7,0,4.9,0.8,6.7,2.4
			c1.8,1.6,3.1,3.6,4,6l19.7,54.6c0.3,0.9,0.6,1.6,0.7,2.3c0.1,0.7,0.2,1.2,0.2,1.5c0,1.9-0.7,3.5-2.1,4.7c-1.4,1.2-3,1.8-4.9,1.8
			c-2.1,0-3.7-0.5-4.8-1.5c-1.1-1-2-2.2-2.5-3.7l-3-9.5H135l-3,9.3c-0.5,1.6-1.3,2.9-2.4,3.9s-2.7,1.5-4.8,1.5c-2,0-3.8-0.7-5.2-2
			c-1.5-1.3-2.2-3-2.2-5c0-0.5,0-1,0.1-1.4c0.1-0.4,0.2-0.8,0.3-1.1c0.1-0.1,0.1-0.3,0.2-0.5c0-0.2,0.1-0.3,0.2-0.4V71.4z
			 M139.4,53.2h19.1L149.1,24h-0.2L139.4,53.2z"/>
		<path class="st0" d="M185,73.9V16.7c0-2.5,0.7-4.4,2.2-5.7c1.4-1.3,3.2-2,5.4-2c2.1,0,3.9,0.7,5.4,2c1.4,1.3,2.2,3.3,2.2,5.8v57.1
			c0,2.5-0.7,4.5-2.2,5.8c-1.4,1.3-3.2,2-5.4,2c-2.1,0-3.9-0.7-5.4-2C185.7,78.4,185,76.4,185,73.9L185,73.9z"/>
		<path class="st0" d="M208.5,73.9V16.7c0-2.5,0.7-4.4,2.2-5.7c1.4-1.3,3.2-2,5.4-2c0.4,0,0.8,0,1.3,0.2c0.5,0.1,0.9,0.3,1.4,0.5
			c0.7,0.3,1.3,0.7,2,1.2c0.7,0.5,1.2,1,1.6,1.5l31.9,42.4h0.2v-38c0-2.5,0.7-4.4,2.2-5.7c1.4-1.3,3.2-2,5.4-2c2.1,0,3.9,0.7,5.4,2
			c1.4,1.3,2.2,3.3,2.2,5.8v57.1c0,2.5-0.7,4.5-2.2,5.8c-1.4,1.3-3.2,2-5.4,2c-0.4,0-0.8-0.1-1.3-0.2c-0.5-0.1-0.9-0.3-1.4-0.4
			c-0.7-0.3-1.3-0.6-2-1.1c-0.7-0.5-1.2-1-1.6-1.5l-31.9-42.1h-0.2v37.5c0,2.5-0.7,4.5-2.2,5.8c-1.4,1.3-3.2,2-5.4,2
			c-2.1,0-3.9-0.7-5.4-2C209.2,78.4,208.5,76.4,208.5,73.9L208.5,73.9z"/>
		<path class="st0" d="M304.9,73.5V17.1c0-2.3,0.8-4.2,2.3-5.5c1.5-1.3,3.4-2,5.7-2l19.3-0.1c5.2,0.1,9.7,1.7,13.4,4.9
			c3.7,3.2,5.5,7.5,5.5,12.9c0,3.5-0.8,6.4-2.3,8.8c-1.5,2.4-3.9,4.4-7.1,5.9v0.1c4.3,0.7,7.9,2.6,10.9,5.8c2.9,3.2,4.4,7,4.4,11.4
			c0,7.1-2.1,12.5-6.4,16.2c-4.3,3.7-9.9,5.5-16.9,5.5h-20.7c-2.3,0-4.2-0.7-5.7-2c-1.5-1.3-2.3-3.2-2.3-5.5V73.5z M320,37.9h7.8
			c2.5,0.1,4.5-0.6,5.9-2c1.5-1.4,2.2-3.4,2.2-5.8c0-2.3-0.8-4.1-2.4-5.3c-1.6-1.2-3.5-1.8-5.7-1.8l-7.8-0.1V37.9z M320,67.8h11.9
			c2.7,0.1,5-0.7,6.8-2.2c1.8-1.5,2.7-3.7,2.7-6.5c0-2.4-0.9-4.3-2.7-5.8c-1.8-1.5-4.4-2.2-8-2.2H320V67.8z"/>
		<path class="st0" d="M362.6,73.9V17.4c0-2.3,0.7-4.2,2-5.6c1.3-1.4,3.2-2.1,5.7-2.1L388,9.5c7.8,0.1,13.9,1.9,18.3,5.5
			c4.5,3.6,6.7,9.4,6.7,17.3c0,5.5-1.8,9.8-5.4,13c-3.6,3.2-8,5.2-13.2,6l17.1,18.2c0.7,0.8,1.3,1.6,1.6,2.3
			c0.3,0.7,0.5,1.5,0.5,2.2c0,1.9-0.7,3.7-2.1,5.3c-1.4,1.6-3.2,2.4-5.4,2.4c-0.4,0-0.8,0-1.3-0.1c-0.4-0.1-0.9-0.2-1.3-0.3
			c-0.6-0.1-1.2-0.4-1.8-0.8c-0.6-0.4-1.1-0.8-1.6-1.4l-22.3-27.1h-0.2v21.8c0,2.5-0.7,4.5-2.2,5.8c-1.4,1.3-3.2,2-5.4,2
			s-3.9-0.7-5.4-2c-1.4-1.3-2.2-3.2-2.2-5.7V73.9z M377.7,41.2H388c2.7,0.1,5-0.7,6.7-2.3s2.6-3.8,2.6-6.6c0-2.9-0.9-5.1-2.6-6.6
			c-1.7-1.5-4-2.3-6.7-2.3l-10.4-0.1V41.2z"/>
		<path class="st0" d="M418.5,73.9V16.7c0-2.5,0.7-4.4,2.2-5.7c1.4-1.3,3.2-2,5.4-2s3.9,0.7,5.4,2c1.4,1.3,2.2,3.3,2.2,5.8v57.1
			c0,2.5-0.7,4.5-2.2,5.8c-1.4,1.3-3.2,2-5.4,2s-3.9-0.7-5.4-2C419.2,78.4,418.5,76.4,418.5,73.9L418.5,73.9z"/>
		<path class="st0" d="M465.2,8.3c1.1,0.1,2.4,0.2,3.9,0.4c1.5,0.2,3.1,0.5,4.8,0.9c2.7,0.7,5.3,1.7,7.5,3.1
			c2.3,1.4,3.4,3.4,3.4,5.8c0,1.9-0.6,3.7-1.8,5.2c-1.2,1.5-2.8,2.3-4.9,2.3c-0.5,0-1,0-1.5-0.1c-0.5-0.1-1-0.2-1.5-0.3
			c-0.5-0.2-1-0.4-1.5-0.6c-0.5-0.2-1-0.4-1.6-0.6c-1.1-0.4-2.2-0.8-3.4-1.1c-1.2-0.3-2.5-0.5-4.1-0.5c-2.1,0-4.1,0.6-5.7,1.7
			c-1.7,1.1-2.5,2.7-2.5,4.9c0,1.7,0.9,3.1,2.6,4.1s3.9,1.8,6.5,2.6c1.2,0.4,2.4,0.8,3.7,1.2c1.3,0.4,2.6,0.8,3.9,1.2
			c4.2,1.5,8.1,3.7,11.6,6.6c3.5,2.9,5.2,7.6,5.2,14.1c0,7.2-2.5,12.8-7.6,17c-5.1,4.2-11.1,6.2-18.1,6.2c-1.3,0-2.9-0.1-4.7-0.2
			c-1.8-0.1-3.7-0.4-5.5-0.7c-3.6-0.6-6.8-1.7-9.8-3.3c-2.9-1.6-4.4-3.9-4.4-7c0-1.9,0.6-3.6,1.8-5c1.2-1.4,2.8-2.1,4.9-2.1
			c1.2,0,2.4,0.2,3.7,0.6c1.3,0.4,2.6,0.8,4,1.3c1.4,0.5,2.9,1,4.4,1.4c1.5,0.4,3.1,0.6,4.7,0.6c3.4,0,5.9-0.8,7.6-2.5
			c1.7-1.6,2.6-3.7,2.6-6.2c0-2.3-1.1-4-3.2-5.1c-2.1-1.1-4.8-2.1-7.8-3c-0.9-0.3-1.9-0.5-2.8-0.8c-0.9-0.3-1.9-0.6-2.9-0.9
			c-4.2-1.3-8.1-3.2-11.6-5.7c-3.5-2.5-5.2-6.7-5.2-12.6c0-7,2.5-12.6,7.4-16.7c5-4.1,10.8-6.1,17.5-6.1V8.3z"/>
		<path class="st0" d="M496.6,74.5V16.3c0-2,0.7-3.7,2.1-5.2c1.4-1.4,3.2-2.2,5.5-2.2c2.1,0,3.9,0.7,5.4,2c1.4,1.3,2.2,3.1,2.2,5.5
			V38l24.7-26.3c0.1-0.1,0.3-0.2,0.4-0.3s0.3-0.3,0.5-0.4c0.5-0.5,1.2-0.9,2.1-1.4c0.8-0.4,1.8-0.7,3-0.7c1.9,0,3.7,0.7,5.2,2
			c1.5,1.3,2.3,3.1,2.3,5.3c0,0.4,0,0.8-0.1,1.2c-0.1,0.4-0.2,0.7-0.3,1.1c-0.3,0.9-0.9,1.8-1.7,2.7c-0.8,0.9-1.7,2-2.9,3.1
			l-19,18.6l23.2,24.2c0.3,0.3,0.5,0.6,0.7,0.9c0.2,0.2,0.4,0.5,0.7,0.7c0.8,0.9,1.5,1.9,2,2.9c0.5,1,0.8,2.1,0.8,3.3
			c0,2.3-0.8,4.1-2.4,5.2c-1.6,1.1-3.4,1.7-5.5,1.7c-0.7,0-1.4-0.1-2.1-0.3c-0.7-0.2-1.3-0.5-1.9-1c-0.6-0.4-1.2-0.9-1.8-1.4
			c-0.6-0.5-1.2-1.2-1.9-1.9l-26-28.2v25.6c0,2-0.7,3.7-2.1,5.1c-1.4,1.4-3.2,2.1-5.5,2.1c-2.1,0-3.9-0.6-5.4-1.9
			c-1.4-1.3-2.2-3-2.2-5.2V74.5z"/>
		<path class="st0" d="M558,73.6V18.3c0-2.5,0.6-4.5,1.9-6.2c1.3-1.6,3.2-2.5,5.9-2.5l24.9-0.1c2.4,0.1,4.2,0.8,5.4,2.3
			c1.2,1.4,1.8,3,1.8,4.8c0,0.1,0,0.1,0,0.2c0,0,0,0.1,0,0.2c-0.1,1.7-0.7,3.2-1.9,4.6c-1.2,1.4-2.9,2.1-5.2,2.1L573,23.4v14.7h16.5
			c2.5,0.1,4.3,0.8,5.5,2.3c1.2,1.4,1.8,3,1.8,4.8c0,0.1,0,0.1,0,0.2c0,0,0,0.1,0,0.2c-0.1,1.7-0.7,3.2-2,4.6
			c-1.2,1.4-3,2.1-5.4,2.1H573v15.2h18.6c2.4,0.1,4.2,0.8,5.4,2.3c1.2,1.4,1.8,3,1.8,4.8c0,0.1,0,0.1,0,0.2s0,0.1,0,0.2
			c-0.1,1.7-0.7,3.2-1.9,4.5c-1.2,1.3-2.9,2-5.2,2h-25.9c-2.2,0-4.1-0.7-5.5-2c-1.5-1.3-2.2-3.1-2.2-5.4V73.6z"/>
		<path class="st0" d="M604.5,73.9V17.4c0-2.3,0.7-4.2,2-5.6c1.3-1.4,3.2-2.1,5.7-2.1l17.7-0.1c7.8,0.1,13.9,1.9,18.3,5.5
			c4.5,3.6,6.7,9.4,6.7,17.3c0,5.5-1.8,9.8-5.4,13c-3.6,3.2-8,5.2-13.2,6l17.1,18.2c0.7,0.8,1.3,1.6,1.6,2.3
			c0.3,0.7,0.5,1.5,0.5,2.2c0,1.9-0.7,3.7-2.1,5.3c-1.4,1.6-3.2,2.4-5.4,2.4c-0.4,0-0.8,0-1.3-0.1c-0.4-0.1-0.9-0.2-1.3-0.3
			c-0.6-0.1-1.2-0.4-1.8-0.8c-0.6-0.4-1.1-0.8-1.6-1.4l-22.3-27.1h-0.2v21.8c0,2.5-0.7,4.5-2.2,5.8c-1.4,1.3-3.2,2-5.4,2
			c-2.1,0-3.9-0.7-5.4-2c-1.4-1.3-2.2-3.2-2.2-5.7V73.9z M619.6,41.2h10.4c2.7,0.1,5-0.7,6.7-2.3s2.6-3.8,2.6-6.6
			c0-2.9-0.9-5.1-2.6-6.6c-1.7-1.5-4-2.3-6.7-2.3l-10.4-0.1V41.2z"/>
	</g>
	<g>
		<path class="st1" d="M2.3,68V11.6c0-2.3,0.8-4.2,2.3-5.5c1.5-1.3,3.4-2,5.7-2L29.6,4c5.2,0.1,9.7,1.7,13.4,4.9
			c3.7,3.2,5.5,7.5,5.5,12.9c0,3.5-0.8,6.4-2.3,8.8c-1.5,2.4-3.9,4.4-7.1,5.9v0.1c4.3,0.7,7.9,2.6,10.9,5.8c2.9,3.2,4.4,7,4.4,11.4
			c0,7.1-2.1,12.5-6.4,16.2c-4.3,3.7-9.9,5.5-16.9,5.5H10.4c-2.3,0-4.2-0.7-5.7-2c-1.5-1.3-2.3-3.2-2.3-5.5V68z M17.4,32.4h7.8
			c2.5,0.1,4.5-0.6,5.9-2c1.5-1.4,2.2-3.4,2.2-5.8c0-2.3-0.8-4.1-2.4-5.3c-1.6-1.2-3.5-1.8-5.7-1.8l-7.8-0.1V32.4z M17.4,62.3h11.9
			c2.7,0.1,5-0.7,6.8-2.2c1.8-1.5,2.7-3.7,2.7-6.5c0-2.4-0.9-4.3-2.7-5.8c-1.8-1.5-4.4-2.2-8-2.2H17.4V62.3z"/>
		<path class="st1" d="M60,68.4V11.9c0-2.3,0.7-4.2,2-5.6c1.3-1.4,3.2-2.1,5.7-2.1L85.4,4c7.8,0.1,13.9,1.9,18.3,5.5
			c4.5,3.6,6.7,9.4,6.7,17.3c0,5.5-1.8,9.8-5.4,13c-3.6,3.2-8,5.2-13.2,6L109,64c0.7,0.8,1.3,1.6,1.6,2.3c0.3,0.7,0.5,1.5,0.5,2.2
			c0,1.9-0.7,3.7-2.1,5.3s-3.2,2.4-5.4,2.4c-0.4,0-0.8,0-1.3-0.1c-0.4-0.1-0.9-0.2-1.3-0.3c-0.6-0.1-1.2-0.4-1.8-0.8
			s-1.1-0.8-1.6-1.4L75.3,46.6h-0.2v21.8c0,2.5-0.7,4.5-2.2,5.8c-1.4,1.3-3.2,2-5.4,2c-2.1,0-3.9-0.7-5.4-2
			c-1.4-1.3-2.2-3.2-2.2-5.7V68.4z M75.1,35.7h10.4c2.7,0.1,5-0.7,6.7-2.3c1.7-1.6,2.6-3.8,2.6-6.6c0-2.9-0.9-5.1-2.6-6.6
			c-1.7-1.5-4-2.3-6.7-2.3l-10.4-0.1V35.7z"/>
		<path class="st1" d="M112.3,65.8l20.2-54.7c0.9-2.3,2.2-4.2,4.1-5.8c1.9-1.6,4.1-2.4,6.6-2.4c2.7,0,4.9,0.8,6.7,2.4
			c1.8,1.6,3.1,3.6,4,6l19.7,54.6c0.3,0.9,0.6,1.6,0.7,2.3c0.1,0.7,0.2,1.2,0.2,1.5c0,1.9-0.7,3.5-2.1,4.7c-1.4,1.2-3,1.8-4.9,1.8
			c-2.1,0-3.7-0.5-4.8-1.5c-1.1-1-2-2.2-2.5-3.7l-3-9.5h-27.9l-3,9.3c-0.5,1.6-1.3,2.9-2.4,3.9c-1.1,1-2.7,1.5-4.8,1.5
			c-2,0-3.8-0.7-5.2-2c-1.5-1.3-2.2-3-2.2-5c0-0.5,0-1,0.1-1.4c0.1-0.4,0.2-0.8,0.3-1.1c0.1-0.1,0.1-0.3,0.2-0.5
			c0-0.2,0.1-0.3,0.2-0.4V65.8z M133.6,47.7h19.1l-9.3-29.1h-0.2L133.6,47.7z"/>
		<path class="st1" d="M179.2,68.4V11.2c0-2.5,0.7-4.4,2.2-5.7c1.4-1.3,3.2-2,5.4-2c2.1,0,3.9,0.7,5.4,2c1.4,1.3,2.2,3.3,2.2,5.8
			v57.1c0,2.5-0.7,4.5-2.2,5.8c-1.4,1.3-3.2,2-5.4,2c-2.1,0-3.9-0.7-5.4-2C179.9,72.8,179.2,70.9,179.2,68.4L179.2,68.4z"/>
		<path class="st1" d="M202.7,68.4V11.2c0-2.5,0.7-4.4,2.2-5.7c1.4-1.3,3.2-2,5.4-2c0.4,0,0.8,0,1.3,0.2c0.5,0.1,0.9,0.3,1.4,0.5
			c0.7,0.3,1.3,0.7,2,1.2c0.7,0.5,1.2,1,1.6,1.5l31.9,42.4h0.2v-38c0-2.5,0.7-4.4,2.2-5.7c1.4-1.3,3.2-2,5.4-2c2.1,0,3.9,0.7,5.4,2
			c1.4,1.3,2.2,3.3,2.2,5.8v57.1c0,2.5-0.7,4.5-2.2,5.8c-1.4,1.3-3.2,2-5.4,2c-0.4,0-0.8-0.1-1.3-0.2c-0.5-0.1-0.9-0.3-1.4-0.4
			c-0.7-0.3-1.3-0.6-2-1.1c-0.7-0.5-1.2-1-1.6-1.5L218,30.9h-0.2v37.5c0,2.5-0.7,4.5-2.2,5.8c-1.4,1.3-3.2,2-5.4,2
			c-2.1,0-3.9-0.7-5.4-2C203.5,72.8,202.7,70.9,202.7,68.4L202.7,68.4z"/>
		<path class="st1" d="M299.1,68V11.6c0-2.3,0.8-4.2,2.3-5.5c1.5-1.3,3.4-2,5.7-2L326.4,4c5.2,0.1,9.7,1.7,13.4,4.9
			c3.7,3.2,5.5,7.5,5.5,12.9c0,3.5-0.8,6.4-2.3,8.8c-1.5,2.4-3.9,4.4-7.1,5.9v0.1c4.3,0.7,7.9,2.6,10.9,5.8c2.9,3.2,4.4,7,4.4,11.4
			c0,7.1-2.1,12.5-6.4,16.2c-4.3,3.7-9.9,5.5-16.9,5.5h-20.7c-2.3,0-4.2-0.7-5.7-2c-1.5-1.3-2.3-3.2-2.3-5.5V68z M314.2,32.4h7.8
			c2.5,0.1,4.5-0.6,5.9-2c1.5-1.4,2.2-3.4,2.2-5.8c0-2.3-0.8-4.1-2.4-5.3s-3.5-1.8-5.7-1.8l-7.8-0.1V32.4z M314.2,62.3h11.9
			c2.7,0.1,5-0.7,6.8-2.2c1.8-1.5,2.7-3.7,2.7-6.5c0-2.4-0.9-4.3-2.7-5.8c-1.8-1.5-4.4-2.2-8-2.2h-10.7V62.3z"/>
		<path class="st1" d="M356.8,68.4V11.9c0-2.3,0.7-4.2,2-5.6c1.3-1.4,3.2-2.1,5.7-2.1L382.2,4c7.8,0.1,13.9,1.9,18.3,5.5
			c4.5,3.6,6.7,9.4,6.7,17.3c0,5.5-1.8,9.8-5.4,13c-3.6,3.2-8,5.2-13.2,6L405.8,64c0.7,0.8,1.3,1.6,1.6,2.3c0.3,0.7,0.5,1.5,0.5,2.2
			c0,1.9-0.7,3.7-2.1,5.3c-1.4,1.6-3.2,2.4-5.4,2.4c-0.4,0-0.8,0-1.3-0.1c-0.4-0.1-0.9-0.2-1.3-0.3c-0.6-0.1-1.2-0.4-1.8-0.8
			c-0.6-0.4-1.1-0.8-1.6-1.4l-22.3-27.1h-0.2v21.8c0,2.5-0.7,4.5-2.2,5.8c-1.4,1.3-3.2,2-5.4,2s-3.9-0.7-5.4-2
			c-1.4-1.3-2.2-3.2-2.2-5.7V68.4z M371.9,35.7h10.4c2.7,0.1,5-0.7,6.7-2.3c1.7-1.6,2.6-3.8,2.6-6.6c0-2.9-0.9-5.1-2.6-6.6
			c-1.7-1.5-4-2.3-6.7-2.3l-10.4-0.1V35.7z"/>
		<path class="st1" d="M412.7,68.4V11.2c0-2.5,0.7-4.4,2.2-5.7c1.4-1.3,3.2-2,5.4-2s3.9,0.7,5.4,2c1.4,1.3,2.2,3.3,2.2,5.8v57.1
			c0,2.5-0.7,4.5-2.2,5.8c-1.4,1.3-3.2,2-5.4,2s-3.9-0.7-5.4-2C413.4,72.8,412.7,70.9,412.7,68.4L412.7,68.4z"/>
		<path class="st1" d="M459.4,2.8c1.1,0.1,2.4,0.2,3.9,0.4c1.5,0.2,3.1,0.5,4.8,0.9c2.7,0.7,5.3,1.7,7.5,3.1
			c2.3,1.4,3.4,3.4,3.4,5.8c0,1.9-0.6,3.7-1.8,5.2c-1.2,1.5-2.8,2.3-4.9,2.3c-0.5,0-1,0-1.5-0.1c-0.5-0.1-1-0.2-1.5-0.3
			c-0.5-0.2-1-0.4-1.5-0.6c-0.5-0.2-1-0.4-1.6-0.6c-1.1-0.4-2.2-0.8-3.4-1.1c-1.2-0.3-2.5-0.5-4.1-0.5c-2.1,0-4.1,0.6-5.7,1.7
			c-1.7,1.1-2.5,2.7-2.5,4.9c0,1.7,0.9,3.1,2.6,4.1c1.7,1,3.9,1.8,6.5,2.6c1.2,0.4,2.4,0.8,3.7,1.2c1.3,0.4,2.6,0.8,3.9,1.2
			c4.2,1.5,8.1,3.7,11.6,6.6c3.5,2.9,5.2,7.6,5.2,14.1c0,7.2-2.5,12.8-7.6,17c-5.1,4.2-11.1,6.2-18.1,6.2c-1.3,0-2.9-0.1-4.7-0.2
			c-1.8-0.1-3.7-0.4-5.5-0.7c-3.6-0.6-6.8-1.7-9.8-3.3s-4.4-3.9-4.4-7c0-1.9,0.6-3.6,1.8-5c1.2-1.4,2.8-2.1,4.9-2.1
			c1.2,0,2.4,0.2,3.7,0.6c1.3,0.4,2.6,0.8,4,1.3c1.4,0.5,2.9,1,4.4,1.4c1.5,0.4,3.1,0.6,4.7,0.6c3.4,0,5.9-0.8,7.6-2.5
			c1.7-1.6,2.6-3.7,2.6-6.2c0-2.3-1.1-4-3.2-5.1c-2.1-1.1-4.8-2.1-7.8-3c-0.9-0.3-1.9-0.5-2.8-0.8c-0.9-0.3-1.9-0.6-2.9-0.9
			c-4.2-1.3-8.1-3.2-11.6-5.7c-3.5-2.5-5.2-6.7-5.2-12.6c0-7,2.5-12.6,7.4-16.7c5-4.1,10.8-6.1,17.5-6.1V2.8z"/>
		<path class="st1" d="M490.8,69V10.8c0-2,0.7-3.7,2.1-5.2c1.4-1.4,3.2-2.2,5.5-2.2c2.1,0,3.9,0.7,5.4,2c1.4,1.3,2.2,3.1,2.2,5.5
			v21.6l24.7-26.3c0.1-0.1,0.3-0.2,0.4-0.3c0.1-0.1,0.3-0.3,0.5-0.4c0.5-0.5,1.2-0.9,2.1-1.4c0.8-0.4,1.8-0.7,3-0.7
			c1.9,0,3.7,0.7,5.2,2c1.5,1.3,2.3,3.1,2.3,5.3c0,0.4,0,0.8-0.1,1.2c-0.1,0.4-0.2,0.7-0.3,1.1c-0.3,0.9-0.9,1.8-1.7,2.7
			c-0.8,0.9-1.7,2-2.9,3.1l-19,18.6l23.2,24.2c0.3,0.3,0.5,0.6,0.7,0.9c0.2,0.2,0.4,0.5,0.7,0.7c0.8,0.9,1.5,1.9,2,2.9
			c0.5,1,0.8,2.1,0.8,3.3c0,2.3-0.8,4.1-2.4,5.2c-1.6,1.1-3.4,1.7-5.5,1.7c-0.7,0-1.4-0.1-2.1-0.3c-0.7-0.2-1.3-0.5-1.9-1
			c-0.6-0.4-1.2-0.9-1.8-1.4c-0.6-0.5-1.2-1.2-1.9-1.9l-26-28.2V69c0,2-0.7,3.7-2.1,5.1c-1.4,1.4-3.2,2.1-5.5,2.1
			c-2.1,0-3.9-0.6-5.4-1.9c-1.4-1.3-2.2-3-2.2-5.2V69z"/>
		<path class="st1" d="M552.2,68.1V12.8c0-2.5,0.6-4.5,1.9-6.2c1.3-1.6,3.2-2.5,5.9-2.5L585,4c2.4,0.1,4.2,0.8,5.4,2.3
			c1.2,1.4,1.8,3,1.8,4.8c0,0.1,0,0.1,0,0.2c0,0,0,0.1,0,0.2c-0.1,1.7-0.7,3.2-1.9,4.6c-1.2,1.4-2.9,2.1-5.2,2.1l-17.7-0.1v14.7
			h16.5c2.5,0.1,4.3,0.8,5.5,2.3c1.2,1.4,1.8,3,1.8,4.8c0,0.1,0,0.1,0,0.2c0,0,0,0.1,0,0.2c-0.1,1.7-0.7,3.2-2,4.6
			c-1.2,1.4-3,2.1-5.4,2.1h-16.5v15.2h18.6c2.4,0.1,4.2,0.8,5.4,2.3c1.2,1.4,1.8,3,1.8,4.8c0,0.1,0,0.1,0,0.2s0,0.1,0,0.2
			c-0.1,1.7-0.7,3.2-1.9,4.5c-1.2,1.3-2.9,2-5.2,2h-25.9c-2.2,0-4.1-0.7-5.5-2c-1.5-1.3-2.2-3.1-2.2-5.4V68.1z"/>
		<path class="st1" d="M598.7,68.4V11.9c0-2.3,0.7-4.2,2-5.6c1.3-1.4,3.2-2.1,5.7-2.1L624.2,4c7.8,0.1,13.9,1.9,18.3,5.5
			c4.5,3.6,6.7,9.4,6.7,17.3c0,5.5-1.8,9.8-5.4,13c-3.6,3.2-8,5.2-13.2,6L647.7,64c0.7,0.8,1.3,1.6,1.6,2.3c0.3,0.7,0.5,1.5,0.5,2.2
			c0,1.9-0.7,3.7-2.1,5.3c-1.4,1.6-3.2,2.4-5.4,2.4c-0.4,0-0.8,0-1.3-0.1c-0.4-0.1-0.9-0.2-1.3-0.3c-0.6-0.1-1.2-0.4-1.8-0.8
			c-0.6-0.4-1.1-0.8-1.6-1.4L614,46.6h-0.2v21.8c0,2.5-0.7,4.5-2.2,5.8c-1.4,1.3-3.2,2-5.4,2c-2.1,0-3.9-0.7-5.4-2
			c-1.4-1.3-2.2-3.2-2.2-5.7V68.4z M613.8,35.7h10.4c2.7,0.1,5-0.7,6.7-2.3c1.7-1.6,2.6-3.8,2.6-6.6c0-2.9-0.9-5.1-2.6-6.6
			c-1.7-1.5-4-2.3-6.7-2.3l-10.4-0.1V35.7z"/>
	</g>
</g>
</svg>
