<?xml version="1.0" encoding="utf-8"?>
<!-- Generator: Adobe Illustrator 21.0.0, SVG Export Plug-In . SVG Version: 6.00 Build 0)  -->
<svg version="1.1" id="Layer_1" xmlns="http://www.w3.org/2000/svg" xmlns:xlink="http://www.w3.org/1999/xlink" x="0px" y="0px"
	 viewBox="0 0 291.7 72.2" style="enable-background:new 0 0 291.7 72.2;" xml:space="preserve">
<style type="text/css">
	.st0{fill:#FFFFFF;}
</style>
<g>
	<path class="st0" d="M84.4,66.6c0.2,0.7,0.1,1.2-0.3,1.6c-0.4,0.4-1.1,0.6-2.1,0.7c-1,0.1-9.5-0.1-10-0.3c-0.5-0.1-0.9-0.4-1.1-0.6
		c-0.2-0.3-0.4-0.6-0.6-1l-10-21.1c-0.4-0.8-1.5-0.8-1.9-0.1L46.3,67c-0.2,0.4-0.4,0.7-0.6,1c-0.2,0.3-0.6,0.5-1.1,0.6
		c-0.5,0.1-8.7,0.4-9.6,0.3c-0.9-0.1-1.6-0.3-1.9-0.7c-0.3-0.4-0.4-0.9-0.2-1.6C33,66,46.9,40.4,49,36.4c0.2-0.3,0.2-0.7,0-1
		c-2.2-4-16.2-29.4-16.4-30c-0.2-0.7-0.3-1.3,0.1-1.7c0.5-0.6,1.6-0.5,2.7-0.3c1,0.2,10.5,1.6,11,1.8c0.5,0.1,0.9,0.4,1.1,0.6
		c0.2,0.3,0.4,0.6,0.6,1L58.3,26c0.4,0.8,1.5,0.8,1.9,0l9.9-19.2c0.2-0.4,0.4-0.7,0.6-1c0.2-0.3,0.6-0.5,1-0.6
		c0.5-0.1,9.6-1.8,10.6-1.9c1.1-0.1,1.6,0.3,2,0.7c0.4,0.4,0.5,0.9,0.3,1.6s-1.7,3.2-2.4,4.4L68.4,35.4c-0.2,0.3-0.2,0.7,0,1
		C70.5,40.4,84.2,66,84.4,66.6z"/>
	<path class="st0" d="M107.3,28.9c0,0.6,0,1.1-0.1,1.5c-0.1,0.4-0.1,0.7-0.2,1c-0.1,0.2-0.2,0.4-0.4,0.6c-0.1,0.1-0.3,0.2-0.5,0.2
		h-8.3c-0.8,0-1.4,0.6-1.4,1.4v29.8c0,0.2-0.1,0.4-0.2,0.5c-0.1,0.2-0.3,0.3-0.6,0.4c-0.3,0.1-0.7,0.2-1.2,0.2
		c-0.5,0.1-1.1,0.1-1.9,0.1s-1.4,0-1.9-0.1c-0.5-0.1-0.9-0.1-1.2-0.2c-0.3-0.1-0.5-0.2-0.6-0.4c-0.1-0.2-0.2-0.3-0.2-0.5V33.5
		c0-0.8-0.6-1.4-1.4-1.4h-8.3c-0.2,0-0.4-0.1-0.5-0.2c-0.1-0.1-0.3-0.3-0.4-0.6c-0.1-0.2-0.2-0.6-0.2-1c-0.1-0.4-0.1-0.9-0.1-1.5
		c0-0.6,0-1.1,0.1-1.5c0-0.4,0.1-0.8,0.2-1c0.1-0.2,0.2-0.4,0.4-0.5c0.1-0.1,0.3-0.2,0.5-0.2h27.3c0.2,0,0.3,0.1,0.5,0.2
		c0.1,0.1,0.3,0.3,0.4,0.5c0.1,0.2,0.2,0.6,0.2,1C107.2,27.8,107.3,28.3,107.3,28.9z"/>
	<path class="st0" d="M94.8,6.2c0,0.4-0.1,0.8-0.2,1.2c-0.2,0.4-0.4,0.7-0.6,1C93.7,8.6,93.4,8.8,93,9c-0.4,0.2-0.8,0.2-1.2,0.2
		c-0.4,0-0.8-0.1-1.2-0.2c-0.4-0.1-0.7-0.4-0.9-0.6c-0.3-0.3-0.5-0.6-0.6-0.9c-0.1-0.4-0.2-0.8-0.2-1.2c0-0.4,0.1-0.8,0.2-1.2
		c0.2-0.4,0.4-0.7,0.6-0.9c0.3-0.3,0.6-0.5,0.9-0.6c0.4-0.2,0.8-0.2,1.2-0.2c0.4,0,0.8,0.1,1.2,0.2c0.4,0.1,0.7,0.4,0.9,0.6
		c0.3,0.3,0.5,0.6,0.6,0.9C94.8,5.4,94.8,5.8,94.8,6.2z M94.2,6.3c0-0.4-0.1-0.7-0.2-1c-0.1-0.3-0.3-0.6-0.5-0.8
		c-0.2-0.2-0.5-0.4-0.8-0.5c-0.3-0.1-0.6-0.2-0.9-0.2c-0.4,0-0.7,0.1-1,0.2c-0.3,0.1-0.5,0.3-0.8,0.5c-0.2,0.2-0.4,0.5-0.5,0.8
		c-0.1,0.3-0.2,0.6-0.2,0.9c0,0.4,0.1,0.7,0.2,1c0.1,0.3,0.3,0.6,0.5,0.8c0.2,0.2,0.5,0.4,0.8,0.5c0.3,0.1,0.6,0.2,0.9,0.2
		c0.4,0,0.7-0.1,1-0.2c0.3-0.1,0.5-0.3,0.8-0.5c0.2-0.2,0.4-0.5,0.5-0.8C94.2,6.9,94.2,6.6,94.2,6.3z M93.2,7.7
		C93.2,7.8,93.2,7.8,93.2,7.7C93.2,7.8,93.2,7.8,93.2,7.7c-0.1,0.1-0.1,0.1-0.2,0.1c0,0-0.1,0-0.2,0c-0.1,0-0.1,0-0.2,0
		c0,0-0.1,0-0.1,0c0,0-0.1,0-0.1-0.1c0,0,0,0,0-0.1l-0.2-0.6c-0.1-0.2-0.2-0.4-0.3-0.4c-0.1-0.1-0.2-0.1-0.4-0.1h-0.2v1.2
		c0,0,0,0.1-0.1,0.1c0,0-0.1,0-0.3,0c-0.1,0-0.2,0-0.3,0c0,0-0.1-0.1-0.1-0.1V4.8c0-0.1,0-0.2,0.1-0.2c0-0.1,0.1-0.1,0.2-0.1h0.8
		c0.2,0,0.4,0,0.6,0.1c0.2,0,0.3,0.1,0.4,0.2C92.9,4.8,93,4.9,93,5c0,0.1,0.1,0.3,0.1,0.4c0,0.3-0.1,0.5-0.2,0.6
		c-0.1,0.1-0.3,0.2-0.6,0.3c0.1,0,0.2,0.1,0.4,0.2S92.9,6.8,93,7l0.2,0.5C93.2,7.7,93.2,7.7,93.2,7.7z M92.4,5.5c0-0.1,0-0.1,0-0.2
		c0-0.1-0.1-0.1-0.1-0.1c0,0-0.1-0.1-0.2-0.1c-0.1,0-0.2,0-0.3,0h-0.4v1h0.4c0.2,0,0.4,0,0.5-0.1C92.3,5.8,92.4,5.7,92.4,5.5z"/>
	<g>
		<path class="st0" d="M132.5,40.8c0,0.2,0,0.4-0.1,0.5c-0.1,0.2-0.2,0.3-0.3,0.4c-0.1,0.1-0.2,0.2-0.4,0.2c-0.2,0-0.3,0.1-0.5,0.1
			h-1.4c-0.3,0-0.5,0-0.8-0.1c-0.2-0.1-0.4-0.2-0.6-0.3c-0.2-0.2-0.4-0.4-0.5-0.6c-0.2-0.3-0.4-0.6-0.6-1l-4-7.6
			c-0.2-0.5-0.5-0.9-0.7-1.5c-0.2-0.5-0.5-1-0.7-1.5h0c0,0.6,0.1,1.2,0.1,1.8c0,0.6,0,1.2,0,1.9v8.5c0,0.1,0,0.2-0.1,0.2
			c0,0.1-0.1,0.1-0.2,0.2c-0.1,0-0.3,0.1-0.5,0.1c-0.2,0-0.4,0-0.7,0c-0.3,0-0.5,0-0.7,0c-0.2,0-0.3-0.1-0.5-0.1
			c-0.1,0-0.2-0.1-0.2-0.2c0-0.1-0.1-0.1-0.1-0.2V26.9c0-0.4,0.1-0.7,0.3-0.9c0.2-0.2,0.5-0.3,0.8-0.3h1.8c0.3,0,0.6,0,0.8,0.1
			c0.2,0.1,0.4,0.1,0.6,0.3c0.2,0.1,0.3,0.3,0.5,0.5c0.2,0.2,0.3,0.5,0.5,0.8l3.2,5.9c0.2,0.4,0.4,0.7,0.5,1.1
			c0.2,0.3,0.4,0.7,0.5,1c0.2,0.3,0.3,0.7,0.5,1c0.2,0.3,0.3,0.7,0.5,1h0c0-0.6,0-1.2-0.1-1.8c0-0.6,0-1.2,0-1.8v-7.6
			c0-0.1,0-0.2,0.1-0.2c0.1-0.1,0.1-0.1,0.3-0.2c0.1-0.1,0.3-0.1,0.5-0.1c0.2,0,0.4,0,0.7,0c0.3,0,0.5,0,0.7,0
			c0.2,0,0.3,0.1,0.4,0.1c0.1,0.1,0.2,0.1,0.2,0.2c0,0.1,0.1,0.1,0.1,0.2V40.8z"/>
		<path class="st0" d="M146.2,35.6c0,0.4-0.1,0.7-0.3,0.9s-0.4,0.3-0.7,0.3h-6.8c0,0.5,0.1,0.9,0.2,1.3c0.1,0.4,0.3,0.7,0.5,1
			c0.2,0.3,0.6,0.5,1,0.6c0.4,0.1,0.9,0.2,1.4,0.2c0.6,0,1,0,1.5-0.1c0.4-0.1,0.8-0.2,1.1-0.3c0.3-0.1,0.6-0.2,0.8-0.3
			c0.2-0.1,0.4-0.1,0.5-0.1c0.1,0,0.1,0,0.2,0c0,0,0.1,0.1,0.1,0.2c0,0.1,0.1,0.2,0.1,0.3c0,0.1,0,0.3,0,0.5c0,0.2,0,0.3,0,0.5
			c0,0.1,0,0.2,0,0.3s0,0.2-0.1,0.2c0,0.1-0.1,0.1-0.1,0.2c-0.1,0.1-0.2,0.1-0.4,0.2c-0.2,0.1-0.6,0.2-0.9,0.3
			c-0.4,0.1-0.8,0.2-1.3,0.3c-0.5,0.1-1,0.1-1.6,0.1c-1,0-1.9-0.1-2.6-0.4c-0.7-0.3-1.4-0.6-1.9-1.1c-0.5-0.5-0.9-1.2-1.1-1.9
			c-0.2-0.8-0.4-1.7-0.4-2.7c0-1,0.1-1.9,0.4-2.7c0.3-0.8,0.6-1.5,1.1-2c0.5-0.6,1.1-1,1.8-1.3c0.7-0.3,1.5-0.4,2.4-0.4
			c0.9,0,1.7,0.1,2.4,0.4c0.7,0.3,1.2,0.7,1.6,1.1c0.4,0.5,0.7,1.1,0.9,1.7c0.2,0.7,0.3,1.4,0.3,2.2V35.6z M143.1,34.7
			c0-0.9-0.2-1.6-0.5-2.1c-0.4-0.5-1-0.8-1.8-0.8c-0.4,0-0.8,0.1-1,0.2c-0.3,0.2-0.5,0.4-0.7,0.6c-0.2,0.3-0.3,0.6-0.5,0.9
			c-0.1,0.3-0.2,0.7-0.2,1.1H143.1z"/>
		<path class="st0" d="M166.8,40.4c0,0.4,0,0.7-0.1,0.8c0,0.2-0.1,0.3-0.2,0.4c-0.1,0.1-0.2,0.2-0.3,0.2c-0.1,0.1-0.3,0.1-0.5,0.2
			c-0.2,0-0.4,0.1-0.6,0.1c-0.2,0-0.5,0-0.7,0c-0.6,0-1.2-0.1-1.6-0.2c-0.5-0.2-0.8-0.4-1.1-0.7c-0.3-0.3-0.5-0.7-0.7-1.2
			s-0.2-1.1-0.2-1.8v-5.7h-1.3c-0.2,0-0.3-0.1-0.4-0.3c-0.1-0.2-0.1-0.5-0.1-1c0-0.2,0-0.4,0-0.6c0-0.2,0.1-0.3,0.1-0.4
			c0-0.1,0.1-0.2,0.2-0.2c0.1,0,0.1-0.1,0.2-0.1h1.3v-2.5c0-0.1,0-0.2,0.1-0.2c0-0.1,0.1-0.1,0.3-0.2c0.1,0,0.3-0.1,0.5-0.1
			c0.2,0,0.5,0,0.8,0c0.3,0,0.6,0,0.8,0c0.2,0,0.4,0.1,0.5,0.1c0.1,0,0.2,0.1,0.3,0.2c0,0.1,0.1,0.1,0.1,0.2v2.5h2.4
			c0.1,0,0.2,0,0.2,0.1s0.1,0.1,0.2,0.2c0,0.1,0.1,0.2,0.1,0.4c0,0.2,0,0.4,0,0.6c0,0.5,0,0.8-0.1,1c-0.1,0.2-0.2,0.3-0.4,0.3h-2.4
			v5.3c0,0.6,0.1,1.1,0.3,1.4c0.2,0.3,0.5,0.5,1,0.5c0.2,0,0.3,0,0.5,0c0.1,0,0.3-0.1,0.4-0.1c0.1,0,0.2-0.1,0.3-0.1
			c0.1,0,0.1,0,0.2,0c0,0,0.1,0,0.1,0c0,0,0.1,0.1,0.1,0.2c0,0.1,0,0.2,0.1,0.4C166.8,40,166.8,40.2,166.8,40.4z"/>
		<path class="st0" d="M184.7,40.7c0,0.2,0,0.4,0,0.6c0,0.2-0.1,0.3-0.1,0.4c0,0.1-0.1,0.2-0.2,0.2c-0.1,0-0.1,0.1-0.2,0.1h-8.2
			c-0.3,0-0.5-0.1-0.7-0.2c-0.2-0.2-0.3-0.4-0.3-0.8V26.7c0-0.4,0.1-0.6,0.3-0.8c0.2-0.2,0.4-0.2,0.7-0.2h8.1c0.1,0,0.1,0,0.2,0.1
			c0.1,0,0.1,0.1,0.2,0.2c0,0.1,0.1,0.2,0.1,0.4c0,0.2,0,0.4,0,0.6c0,0.2,0,0.4,0,0.6c0,0.2-0.1,0.3-0.1,0.4c0,0.1-0.1,0.2-0.2,0.2
			c-0.1,0-0.1,0.1-0.2,0.1h-5.8v4h4.9c0.1,0,0.1,0,0.2,0.1c0.1,0,0.1,0.1,0.2,0.2c0,0.1,0.1,0.2,0.1,0.4c0,0.2,0,0.4,0,0.6
			c0,0.2,0,0.4,0,0.6c0,0.2-0.1,0.3-0.1,0.4c0,0.1-0.1,0.2-0.2,0.2c-0.1,0-0.1,0.1-0.2,0.1h-4.9v4.6h5.8c0.1,0,0.1,0,0.2,0.1
			c0.1,0,0.1,0.1,0.2,0.2c0,0.1,0.1,0.2,0.1,0.4C184.7,40.2,184.7,40.4,184.7,40.7z"/>
		<path class="st0" d="M210.5,35.8c0,1-0.1,1.9-0.3,2.7s-0.5,1.5-0.9,2c-0.4,0.6-0.9,1-1.5,1.3c-0.6,0.3-1.3,0.5-2.1,0.5
			c-0.3,0-0.6,0-0.9-0.1s-0.5-0.2-0.8-0.3s-0.5-0.3-0.8-0.5c-0.3-0.2-0.5-0.4-0.8-0.7V46c0,0.1,0,0.2-0.1,0.2
			c-0.1,0.1-0.1,0.1-0.3,0.2c-0.1,0-0.3,0.1-0.5,0.1c-0.2,0-0.5,0-0.8,0c-0.3,0-0.6,0-0.8,0c-0.2,0-0.4-0.1-0.5-0.1
			c-0.1,0-0.2-0.1-0.3-0.2c-0.1-0.1-0.1-0.1-0.1-0.2V30.3c0-0.1,0-0.2,0.1-0.2c0-0.1,0.1-0.1,0.2-0.2c0.1,0,0.2-0.1,0.4-0.1
			s0.4,0,0.6,0c0.3,0,0.5,0,0.6,0s0.3,0.1,0.4,0.1c0.1,0,0.2,0.1,0.2,0.2c0,0.1,0.1,0.1,0.1,0.2v1.3c0.3-0.3,0.6-0.6,1-0.9
			c0.3-0.3,0.6-0.5,1-0.6c0.3-0.2,0.7-0.3,1-0.4c0.3-0.1,0.7-0.1,1.1-0.1c0.8,0,1.5,0.2,2.1,0.5c0.6,0.3,1,0.8,1.4,1.3
			c0.4,0.6,0.6,1.2,0.8,2C210.5,34.1,210.5,34.9,210.5,35.8z M207.3,36c0-0.5,0-0.9-0.1-1.4c-0.1-0.4-0.2-0.8-0.4-1.2
			c-0.2-0.3-0.4-0.6-0.7-0.8c-0.3-0.2-0.6-0.3-1-0.3c-0.2,0-0.4,0-0.6,0.1c-0.2,0.1-0.4,0.2-0.6,0.3c-0.2,0.1-0.4,0.3-0.7,0.6
			c-0.2,0.2-0.5,0.5-0.7,0.8v3.7c0.4,0.6,0.9,1,1.3,1.3c0.4,0.3,0.8,0.5,1.3,0.5c0.4,0,0.8-0.1,1-0.3c0.3-0.2,0.5-0.5,0.7-0.8
			c0.2-0.3,0.3-0.7,0.4-1.1C207.2,36.8,207.3,36.4,207.3,36z"/>
		<path class="st0" d="M223.4,35.6c0,0.4-0.1,0.7-0.3,0.9s-0.4,0.3-0.7,0.3h-6.8c0,0.5,0.1,0.9,0.2,1.3c0.1,0.4,0.3,0.7,0.5,1
			c0.2,0.3,0.6,0.5,1,0.6c0.4,0.1,0.9,0.2,1.4,0.2c0.6,0,1,0,1.5-0.1c0.4-0.1,0.8-0.2,1.1-0.3c0.3-0.1,0.6-0.2,0.8-0.3
			c0.2-0.1,0.4-0.1,0.5-0.1c0.1,0,0.1,0,0.2,0c0,0,0.1,0.1,0.1,0.2c0,0.1,0.1,0.2,0.1,0.3c0,0.1,0,0.3,0,0.5c0,0.2,0,0.3,0,0.5
			c0,0.1,0,0.2,0,0.3c0,0.1,0,0.2-0.1,0.2c0,0.1-0.1,0.1-0.1,0.2c-0.1,0.1-0.2,0.1-0.4,0.2c-0.2,0.1-0.6,0.2-0.9,0.3
			c-0.4,0.1-0.8,0.2-1.3,0.3c-0.5,0.1-1,0.1-1.6,0.1c-1,0-1.9-0.1-2.6-0.4c-0.7-0.3-1.4-0.6-1.9-1.1c-0.5-0.5-0.9-1.2-1.1-1.9
			c-0.2-0.8-0.4-1.7-0.4-2.7c0-1,0.1-1.9,0.4-2.7c0.3-0.8,0.6-1.5,1.1-2c0.5-0.6,1.1-1,1.8-1.3c0.7-0.3,1.5-0.4,2.4-0.4
			c0.9,0,1.7,0.1,2.4,0.4c0.7,0.3,1.2,0.7,1.6,1.1c0.4,0.5,0.7,1.1,0.9,1.7c0.2,0.7,0.3,1.4,0.3,2.2V35.6z M220.3,34.7
			c0-0.9-0.2-1.6-0.5-2.1c-0.4-0.5-1-0.8-1.8-0.8c-0.4,0-0.8,0.1-1,0.2c-0.3,0.2-0.5,0.4-0.7,0.6c-0.2,0.3-0.3,0.6-0.5,0.9
			c-0.1,0.3-0.2,0.7-0.2,1.1H220.3z"/>
		<path class="st0" d="M233.2,31.4c0,0.3,0,0.5,0,0.7c0,0.2,0,0.3-0.1,0.5c0,0.1-0.1,0.2-0.1,0.2c-0.1,0-0.1,0.1-0.2,0.1
			c-0.1,0-0.1,0-0.2,0c-0.1,0-0.2-0.1-0.3-0.1c-0.1,0-0.2-0.1-0.3-0.1c-0.1,0-0.3,0-0.4,0c-0.2,0-0.4,0-0.5,0.1
			c-0.2,0.1-0.4,0.2-0.5,0.3c-0.2,0.2-0.4,0.4-0.6,0.6c-0.2,0.3-0.4,0.6-0.7,0.9v7c0,0.1,0,0.2-0.1,0.2c-0.1,0.1-0.1,0.1-0.3,0.2
			c-0.1,0-0.3,0.1-0.5,0.1c-0.2,0-0.5,0-0.8,0c-0.3,0-0.6,0-0.8,0c-0.2,0-0.4-0.1-0.5-0.1c-0.1,0-0.2-0.1-0.3-0.2
			c-0.1-0.1-0.1-0.1-0.1-0.2V30.3c0-0.1,0-0.2,0.1-0.2c0-0.1,0.1-0.1,0.2-0.2c0.1,0,0.2-0.1,0.4-0.1s0.4,0,0.6,0c0.3,0,0.5,0,0.7,0
			s0.3,0.1,0.4,0.1c0.1,0,0.2,0.1,0.2,0.2c0,0.1,0.1,0.1,0.1,0.2v1.4c0.3-0.4,0.6-0.8,0.8-1c0.3-0.3,0.5-0.5,0.7-0.6
			c0.2-0.2,0.5-0.3,0.7-0.3c0.2-0.1,0.5-0.1,0.7-0.1c0.1,0,0.2,0,0.4,0c0.1,0,0.3,0,0.4,0.1c0.1,0,0.3,0.1,0.4,0.1s0.2,0.1,0.2,0.1
			s0.1,0.1,0.1,0.1c0,0.1,0,0.1,0.1,0.2c0,0.1,0,0.2,0,0.4C233.2,30.8,233.2,31.1,233.2,31.4z"/>
		<path class="st0" d="M238.5,26.5c0,0.6-0.1,1.1-0.4,1.3c-0.3,0.2-0.7,0.4-1.4,0.4c-0.7,0-1.2-0.1-1.4-0.4
			c-0.2-0.2-0.4-0.7-0.4-1.3c0-0.6,0.1-1.1,0.4-1.3c0.3-0.2,0.7-0.4,1.4-0.4c0.7,0,1.2,0.1,1.4,0.4
			C238.4,25.5,238.5,25.9,238.5,26.5z M238.3,41.5c0,0.1,0,0.2-0.1,0.2c-0.1,0.1-0.1,0.1-0.3,0.2c-0.1,0-0.3,0.1-0.5,0.1
			c-0.2,0-0.5,0-0.8,0c-0.3,0-0.6,0-0.8,0c-0.2,0-0.4-0.1-0.5-0.1c-0.1,0-0.2-0.1-0.3-0.2c-0.1-0.1-0.1-0.1-0.1-0.2V30.4
			c0-0.1,0-0.2,0.1-0.2c0-0.1,0.1-0.1,0.3-0.2c0.1,0,0.3-0.1,0.5-0.1c0.2,0,0.5,0,0.8,0c0.3,0,0.6,0,0.8,0c0.2,0,0.4,0.1,0.5,0.1
			c0.1,0,0.2,0.1,0.3,0.2c0,0.1,0.1,0.1,0.1,0.2V41.5z"/>
		<path class="st0" d="M251.8,35.6c0,0.4-0.1,0.7-0.3,0.9s-0.4,0.3-0.7,0.3H244c0,0.5,0.1,0.9,0.2,1.3c0.1,0.4,0.3,0.7,0.5,1
			c0.2,0.3,0.6,0.5,1,0.6c0.4,0.1,0.9,0.2,1.4,0.2c0.6,0,1,0,1.5-0.1c0.4-0.1,0.8-0.2,1.1-0.3c0.3-0.1,0.6-0.2,0.8-0.3
			c0.2-0.1,0.4-0.1,0.5-0.1c0.1,0,0.1,0,0.2,0c0,0,0.1,0.1,0.1,0.2c0,0.1,0.1,0.2,0.1,0.3c0,0.1,0,0.3,0,0.5c0,0.2,0,0.3,0,0.5
			c0,0.1,0,0.2,0,0.3c0,0.1,0,0.2-0.1,0.2c0,0.1-0.1,0.1-0.1,0.2s-0.2,0.1-0.4,0.2c-0.2,0.1-0.6,0.2-0.9,0.3
			c-0.4,0.1-0.8,0.2-1.3,0.3c-0.5,0.1-1,0.1-1.6,0.1c-1,0-1.9-0.1-2.6-0.4c-0.7-0.3-1.4-0.6-1.9-1.1c-0.5-0.5-0.9-1.2-1.1-1.9
			c-0.2-0.8-0.4-1.7-0.4-2.7c0-1,0.1-1.9,0.4-2.7s0.6-1.5,1.1-2c0.5-0.6,1.1-1,1.8-1.3c0.7-0.3,1.5-0.4,2.4-0.4
			c0.9,0,1.7,0.1,2.4,0.4c0.7,0.3,1.2,0.7,1.6,1.1c0.4,0.5,0.7,1.1,0.9,1.7c0.2,0.7,0.3,1.4,0.3,2.2V35.6z M248.7,34.7
			c0-0.9-0.2-1.6-0.5-2.1c-0.4-0.5-1-0.8-1.8-0.8c-0.4,0-0.8,0.1-1,0.2c-0.3,0.2-0.5,0.4-0.7,0.6c-0.2,0.3-0.3,0.6-0.5,0.9
			c-0.1,0.3-0.2,0.7-0.2,1.1H248.7z"/>
		<path class="st0" d="M265.1,41.5c0,0.1,0,0.2-0.1,0.2c-0.1,0.1-0.1,0.1-0.3,0.2c-0.1,0-0.3,0.1-0.5,0.1c-0.2,0-0.5,0-0.8,0
			c-0.3,0-0.6,0-0.8,0c-0.2,0-0.4-0.1-0.5-0.1s-0.2-0.1-0.3-0.2c-0.1-0.1-0.1-0.1-0.1-0.2v-6.4c0-0.5,0-1-0.1-1.3
			c-0.1-0.3-0.2-0.6-0.3-0.8c-0.2-0.2-0.3-0.4-0.6-0.5c-0.2-0.1-0.5-0.2-0.8-0.2c-0.4,0-0.8,0.1-1.2,0.4c-0.4,0.3-0.8,0.7-1.3,1.3
			v7.4c0,0.1,0,0.2-0.1,0.2c-0.1,0.1-0.1,0.1-0.3,0.2c-0.1,0-0.3,0.1-0.5,0.1c-0.2,0-0.5,0-0.8,0c-0.3,0-0.6,0-0.8,0
			c-0.2,0-0.4-0.1-0.5-0.1c-0.1,0-0.2-0.1-0.3-0.2c-0.1-0.1-0.1-0.1-0.1-0.2V30.3c0-0.1,0-0.2,0.1-0.2c0-0.1,0.1-0.1,0.2-0.2
			c0.1,0,0.2-0.1,0.4-0.1s0.4,0,0.6,0c0.3,0,0.5,0,0.7,0s0.3,0.1,0.4,0.1c0.1,0,0.2,0.1,0.2,0.2c0,0.1,0.1,0.1,0.1,0.2v1.3
			c0.6-0.7,1.2-1.2,1.9-1.5c0.6-0.3,1.3-0.5,2-0.5c0.8,0,1.4,0.1,1.9,0.4c0.5,0.3,0.9,0.6,1.3,1c0.3,0.4,0.6,0.9,0.7,1.5
			c0.1,0.6,0.2,1.3,0.2,2.1V41.5z"/>
		<path class="st0" d="M276.6,39.7c0,0.2,0,0.4,0,0.5c0,0.1,0,0.3-0.1,0.4s0,0.2-0.1,0.2c0,0.1-0.1,0.1-0.2,0.2
			c-0.1,0.1-0.3,0.2-0.5,0.4c-0.2,0.1-0.5,0.3-0.8,0.4c-0.3,0.1-0.6,0.2-1,0.3c-0.4,0.1-0.7,0.1-1.1,0.1c-0.9,0-1.6-0.1-2.3-0.4
			c-0.7-0.3-1.2-0.7-1.7-1.2c-0.5-0.5-0.8-1.2-1-1.9c-0.2-0.8-0.3-1.6-0.3-2.6c0-1.1,0.1-2.1,0.4-2.9c0.3-0.8,0.7-1.5,1.2-2
			c0.5-0.5,1.1-0.9,1.8-1.2c0.7-0.3,1.4-0.4,2.3-0.4c0.3,0,0.7,0,1,0.1c0.3,0.1,0.6,0.1,0.9,0.2c0.3,0.1,0.5,0.2,0.8,0.3
			c0.2,0.1,0.4,0.2,0.5,0.3c0.1,0.1,0.2,0.2,0.2,0.2c0,0.1,0.1,0.1,0.1,0.2c0,0.1,0,0.2,0,0.4c0,0.1,0,0.3,0,0.5c0,0.5,0,0.8-0.1,1
			c-0.1,0.2-0.2,0.3-0.3,0.3c-0.1,0-0.3-0.1-0.5-0.2c-0.2-0.1-0.3-0.2-0.6-0.4c-0.2-0.1-0.5-0.3-0.8-0.4c-0.3-0.1-0.7-0.2-1.1-0.2
			c-0.8,0-1.4,0.3-1.9,0.9c-0.4,0.6-0.7,1.6-0.7,2.8c0,0.6,0.1,1.1,0.2,1.6c0.1,0.5,0.3,0.8,0.5,1.2c0.2,0.3,0.5,0.5,0.8,0.7
			c0.3,0.2,0.7,0.2,1.1,0.2c0.4,0,0.8-0.1,1.1-0.2s0.6-0.3,0.8-0.4c0.2-0.2,0.4-0.3,0.6-0.4c0.2-0.1,0.3-0.2,0.4-0.2
			c0.1,0,0.1,0,0.2,0.1c0,0,0.1,0.1,0.1,0.2c0,0.1,0.1,0.3,0.1,0.4C276.6,39.2,276.6,39.5,276.6,39.7z"/>
		<path class="st0" d="M289.3,35.6c0,0.4-0.1,0.7-0.3,0.9c-0.2,0.2-0.4,0.3-0.7,0.3h-6.8c0,0.5,0.1,0.9,0.2,1.3
			c0.1,0.4,0.3,0.7,0.5,1c0.2,0.3,0.6,0.5,1,0.6c0.4,0.1,0.9,0.2,1.4,0.2c0.6,0,1,0,1.5-0.1s0.8-0.2,1.1-0.3
			c0.3-0.1,0.6-0.2,0.8-0.3c0.2-0.1,0.4-0.1,0.5-0.1c0.1,0,0.1,0,0.2,0c0,0,0.1,0.1,0.1,0.2c0,0.1,0.1,0.2,0.1,0.3
			c0,0.1,0,0.3,0,0.5c0,0.2,0,0.3,0,0.5c0,0.1,0,0.2,0,0.3c0,0.1,0,0.2-0.1,0.2c0,0.1-0.1,0.1-0.1,0.2s-0.2,0.1-0.4,0.2
			s-0.6,0.2-0.9,0.3c-0.4,0.1-0.8,0.2-1.3,0.3c-0.5,0.1-1,0.1-1.6,0.1c-1,0-1.9-0.1-2.6-0.4c-0.7-0.3-1.4-0.6-1.9-1.1
			c-0.5-0.5-0.9-1.2-1.1-1.9c-0.2-0.8-0.4-1.7-0.4-2.7c0-1,0.1-1.9,0.4-2.7s0.6-1.5,1.1-2c0.5-0.6,1.1-1,1.8-1.3
			c0.7-0.3,1.5-0.4,2.4-0.4c0.9,0,1.7,0.1,2.4,0.4c0.7,0.3,1.2,0.7,1.6,1.1c0.4,0.5,0.7,1.1,0.9,1.7c0.2,0.7,0.3,1.4,0.3,2.2V35.6z
			 M286.2,34.7c0-0.9-0.2-1.6-0.5-2.1c-0.4-0.5-1-0.8-1.8-0.8c-0.4,0-0.8,0.1-1,0.2c-0.3,0.2-0.5,0.4-0.7,0.6
			c-0.2,0.3-0.3,0.6-0.5,0.9c-0.1,0.3-0.2,0.7-0.2,1.1H286.2z"/>
		<path class="st0" d="M129.9,49.5c0,0.2,0,0.4,0,0.6c0,0.2-0.1,0.3-0.1,0.4c0,0.1-0.1,0.2-0.2,0.2c-0.1,0.1-0.1,0.1-0.2,0.1h-4.1
			V64c0,0.1,0,0.2-0.1,0.2c-0.1,0.1-0.1,0.1-0.3,0.2c-0.1,0-0.3,0.1-0.5,0.1c-0.2,0-0.5,0-0.8,0c-0.3,0-0.6,0-0.8,0
			c-0.2,0-0.4-0.1-0.5-0.1c-0.1,0-0.2-0.1-0.3-0.2c-0.1-0.1-0.1-0.1-0.1-0.2V50.9H118c-0.1,0-0.2,0-0.2-0.1
			c-0.1-0.1-0.1-0.1-0.2-0.2c0-0.1-0.1-0.2-0.1-0.4s0-0.4,0-0.6c0-0.3,0-0.5,0-0.6c0-0.2,0.1-0.3,0.1-0.4c0-0.1,0.1-0.2,0.2-0.2
			c0.1,0,0.1-0.1,0.2-0.1h11.4c0.1,0,0.1,0,0.2,0.1c0.1,0,0.1,0.1,0.2,0.2c0,0.1,0.1,0.2,0.1,0.4C129.9,49.1,129.9,49.3,129.9,49.5z
			"/>
		<path class="st0" d="M139.8,58.1c0,0.4-0.1,0.7-0.3,0.9c-0.2,0.2-0.4,0.3-0.7,0.3H132c0,0.5,0.1,0.9,0.2,1.3
			c0.1,0.4,0.3,0.7,0.5,1c0.2,0.3,0.6,0.5,1,0.6c0.4,0.1,0.9,0.2,1.4,0.2c0.6,0,1,0,1.5-0.1c0.4-0.1,0.8-0.2,1.1-0.3
			c0.3-0.1,0.6-0.2,0.8-0.3c0.2-0.1,0.4-0.1,0.5-0.1c0.1,0,0.1,0,0.2,0c0.1,0,0.1,0.1,0.1,0.2c0,0.1,0.1,0.2,0.1,0.3
			c0,0.1,0,0.3,0,0.5c0,0.2,0,0.3,0,0.5c0,0.1,0,0.2,0,0.3c0,0.1,0,0.2-0.1,0.2c0,0.1-0.1,0.1-0.1,0.2c-0.1,0.1-0.2,0.1-0.4,0.2
			c-0.2,0.1-0.6,0.2-0.9,0.3c-0.4,0.1-0.8,0.2-1.3,0.3c-0.5,0.1-1,0.1-1.6,0.1c-1,0-1.9-0.1-2.6-0.4c-0.7-0.3-1.4-0.6-1.9-1.1
			c-0.5-0.5-0.9-1.2-1.1-1.9c-0.2-0.8-0.4-1.7-0.4-2.7c0-1,0.1-1.9,0.4-2.7s0.6-1.5,1.1-2c0.5-0.6,1.1-1,1.8-1.3
			c0.7-0.3,1.5-0.4,2.4-0.4c0.9,0,1.7,0.1,2.4,0.4c0.7,0.3,1.2,0.7,1.6,1.1c0.4,0.5,0.7,1.1,0.9,1.7c0.2,0.7,0.3,1.4,0.3,2.2V58.1z
			 M136.7,57.2c0-0.9-0.2-1.6-0.5-2.1c-0.4-0.5-1-0.8-1.8-0.8c-0.4,0-0.8,0.1-1,0.2c-0.3,0.2-0.5,0.4-0.7,0.6
			c-0.2,0.3-0.3,0.6-0.5,0.9c-0.1,0.3-0.2,0.7-0.2,1.1H136.7z"/>
		<path class="st0" d="M150.8,62.2c0,0.2,0,0.4,0,0.5c0,0.1,0,0.3-0.1,0.4c0,0.1,0,0.2-0.1,0.2c0,0.1-0.1,0.1-0.2,0.2
			c-0.1,0.1-0.3,0.2-0.5,0.4c-0.2,0.1-0.5,0.3-0.8,0.4c-0.3,0.1-0.6,0.2-1,0.3c-0.4,0.1-0.7,0.1-1.1,0.1c-0.9,0-1.6-0.1-2.3-0.4
			c-0.7-0.3-1.2-0.7-1.7-1.2c-0.5-0.5-0.8-1.2-1-1.9c-0.2-0.8-0.3-1.6-0.3-2.6c0-1.1,0.1-2.1,0.4-2.9c0.3-0.8,0.7-1.5,1.2-2
			c0.5-0.5,1.1-0.9,1.8-1.2c0.7-0.3,1.4-0.4,2.3-0.4c0.3,0,0.7,0,1,0.1c0.3,0.1,0.6,0.1,0.9,0.2c0.3,0.1,0.5,0.2,0.8,0.3
			c0.2,0.1,0.4,0.2,0.5,0.3c0.1,0.1,0.2,0.2,0.2,0.2c0,0.1,0.1,0.1,0.1,0.2c0,0.1,0,0.2,0,0.4c0,0.1,0,0.3,0,0.5c0,0.5,0,0.8-0.1,1
			c-0.1,0.2-0.2,0.3-0.3,0.3c-0.1,0-0.3-0.1-0.5-0.2c-0.2-0.1-0.3-0.2-0.6-0.4s-0.5-0.3-0.8-0.4c-0.3-0.1-0.7-0.2-1.1-0.2
			c-0.8,0-1.4,0.3-1.9,0.9c-0.4,0.6-0.7,1.6-0.7,2.8c0,0.6,0.1,1.1,0.2,1.6c0.1,0.5,0.3,0.8,0.5,1.2c0.2,0.3,0.5,0.5,0.8,0.7
			c0.3,0.2,0.7,0.2,1.1,0.2c0.4,0,0.8-0.1,1.1-0.2c0.3-0.1,0.6-0.3,0.8-0.4s0.4-0.3,0.6-0.4c0.2-0.1,0.3-0.2,0.4-0.2
			c0.1,0,0.1,0,0.2,0.1c0,0,0.1,0.1,0.1,0.2c0,0.1,0.1,0.3,0.1,0.4C150.8,61.7,150.8,61.9,150.8,62.2z"/>
		<path class="st0" d="M163.8,64c0,0.1,0,0.2-0.1,0.2c-0.1,0.1-0.1,0.1-0.3,0.2c-0.1,0-0.3,0.1-0.5,0.1c-0.2,0-0.5,0-0.8,0
			c-0.3,0-0.6,0-0.8,0c-0.2,0-0.4-0.1-0.5-0.1s-0.2-0.1-0.3-0.2c-0.1-0.1-0.1-0.1-0.1-0.2v-6.4c0-0.5,0-1-0.1-1.3
			c-0.1-0.3-0.2-0.6-0.3-0.8c-0.2-0.2-0.3-0.4-0.6-0.5c-0.2-0.1-0.5-0.2-0.8-0.2c-0.4,0-0.8,0.1-1.2,0.4c-0.4,0.3-0.8,0.7-1.3,1.3
			V64c0,0.1,0,0.2-0.1,0.2c-0.1,0.1-0.1,0.1-0.3,0.2c-0.1,0-0.3,0.1-0.5,0.1c-0.2,0-0.5,0-0.8,0c-0.3,0-0.6,0-0.8,0
			c-0.2,0-0.4-0.1-0.5-0.1c-0.1,0-0.2-0.1-0.3-0.2c-0.1-0.1-0.1-0.1-0.1-0.2V47.5c0-0.1,0-0.2,0.1-0.2c0-0.1,0.1-0.1,0.3-0.2
			c0.1,0,0.3-0.1,0.5-0.1c0.2,0,0.5,0,0.8,0c0.3,0,0.6,0,0.8,0c0.2,0,0.4,0.1,0.5,0.1c0.1,0,0.2,0.1,0.3,0.2c0,0.1,0.1,0.1,0.1,0.2
			v6.2c0.5-0.5,1.1-0.9,1.7-1.2c0.6-0.3,1.2-0.4,1.8-0.4c0.8,0,1.4,0.1,1.9,0.4c0.5,0.3,0.9,0.6,1.3,1c0.3,0.4,0.6,0.9,0.7,1.5
			c0.1,0.6,0.2,1.3,0.2,2.1V64z"/>
		<path class="st0" d="M177.6,64c0,0.1,0,0.2-0.1,0.2c-0.1,0.1-0.1,0.1-0.3,0.2c-0.1,0-0.3,0.1-0.5,0.1c-0.2,0-0.5,0-0.8,0
			c-0.3,0-0.6,0-0.8,0c-0.2,0-0.4-0.1-0.5-0.1s-0.2-0.1-0.3-0.2c-0.1-0.1-0.1-0.1-0.1-0.2v-6.4c0-0.5,0-1-0.1-1.3
			c-0.1-0.3-0.2-0.6-0.3-0.8c-0.2-0.2-0.3-0.4-0.6-0.5c-0.2-0.1-0.5-0.2-0.8-0.2c-0.4,0-0.8,0.1-1.2,0.4c-0.4,0.3-0.8,0.7-1.3,1.3
			V64c0,0.1,0,0.2-0.1,0.2c-0.1,0.1-0.1,0.1-0.3,0.2c-0.1,0-0.3,0.1-0.5,0.1c-0.2,0-0.5,0-0.8,0c-0.3,0-0.6,0-0.8,0
			c-0.2,0-0.4-0.1-0.5-0.1c-0.1,0-0.2-0.1-0.3-0.2c-0.1-0.1-0.1-0.1-0.1-0.2V52.8c0-0.1,0-0.2,0.1-0.2c0-0.1,0.1-0.1,0.2-0.2
			c0.1,0,0.2-0.1,0.4-0.1c0.2,0,0.4,0,0.6,0c0.3,0,0.5,0,0.7,0s0.3,0.1,0.4,0.1c0.1,0,0.2,0.1,0.2,0.2c0,0.1,0.1,0.1,0.1,0.2v1.3
			c0.6-0.7,1.2-1.2,1.9-1.5c0.6-0.3,1.3-0.5,2-0.5c0.8,0,1.4,0.1,1.9,0.4c0.5,0.3,0.9,0.6,1.3,1c0.3,0.4,0.6,0.9,0.7,1.5
			c0.1,0.6,0.2,1.3,0.2,2.1V64z"/>
		<path class="st0" d="M192,58.3c0,1-0.1,1.8-0.4,2.6c-0.3,0.8-0.6,1.5-1.1,2c-0.5,0.6-1.2,1-1.9,1.3c-0.8,0.3-1.7,0.5-2.7,0.5
			c-1,0-1.9-0.1-2.6-0.4c-0.7-0.3-1.3-0.7-1.8-1.2s-0.8-1.2-1.1-1.9c-0.2-0.8-0.4-1.6-0.4-2.6c0-1,0.1-1.8,0.4-2.6
			c0.3-0.8,0.6-1.5,1.1-2c0.5-0.6,1.1-1,1.9-1.3c0.8-0.3,1.7-0.5,2.7-0.5c1,0,1.9,0.1,2.6,0.4c0.7,0.3,1.3,0.7,1.8,1.2
			c0.5,0.5,0.8,1.2,1.1,1.9C191.9,56.4,192,57.3,192,58.3z M188.8,58.4c0-0.6,0-1.1-0.1-1.5c-0.1-0.5-0.2-0.9-0.4-1.2
			c-0.2-0.3-0.5-0.6-0.8-0.8c-0.3-0.2-0.8-0.3-1.3-0.3c-0.5,0-0.9,0.1-1.2,0.3c-0.4,0.2-0.6,0.4-0.9,0.8c-0.2,0.3-0.4,0.7-0.5,1.2
			c-0.1,0.5-0.2,1-0.2,1.6c0,0.6,0,1.1,0.1,1.5c0.1,0.5,0.2,0.9,0.4,1.2c0.2,0.3,0.5,0.6,0.8,0.8c0.4,0.2,0.8,0.3,1.3,0.3
			c0.5,0,0.9-0.1,1.2-0.3c0.4-0.2,0.6-0.4,0.9-0.7c0.2-0.3,0.4-0.7,0.5-1.2C188.7,59.5,188.8,59,188.8,58.4z"/>
		<path class="st0" d="M197.7,64c0,0.1,0,0.2-0.1,0.2c-0.1,0.1-0.1,0.1-0.3,0.2c-0.1,0-0.3,0.1-0.5,0.1c-0.2,0-0.5,0-0.8,0
			c-0.3,0-0.6,0-0.8,0c-0.2,0-0.4-0.1-0.5-0.1c-0.1,0-0.2-0.1-0.3-0.2c-0.1-0.1-0.1-0.1-0.1-0.2V47.5c0-0.1,0-0.2,0.1-0.2
			c0-0.1,0.1-0.1,0.3-0.2c0.1,0,0.3-0.1,0.5-0.1c0.2,0,0.5,0,0.8,0c0.3,0,0.6,0,0.8,0c0.2,0,0.4,0.1,0.5,0.1c0.1,0,0.2,0.1,0.3,0.2
			c0,0.1,0.1,0.1,0.1,0.2V64z"/>
		<path class="st0" d="M212.2,58.3c0,1-0.1,1.8-0.4,2.6c-0.3,0.8-0.6,1.5-1.1,2c-0.5,0.6-1.2,1-1.9,1.3c-0.8,0.3-1.7,0.5-2.7,0.5
			c-1,0-1.9-0.1-2.6-0.4c-0.7-0.3-1.3-0.7-1.8-1.2s-0.8-1.2-1.1-1.9c-0.2-0.8-0.4-1.6-0.4-2.6c0-1,0.1-1.8,0.4-2.6
			c0.3-0.8,0.6-1.5,1.1-2c0.5-0.6,1.1-1,1.9-1.3c0.8-0.3,1.7-0.5,2.7-0.5c1,0,1.9,0.1,2.6,0.4c0.7,0.3,1.3,0.7,1.8,1.2
			c0.5,0.5,0.8,1.2,1.1,1.9C212,56.4,212.2,57.3,212.2,58.3z M208.9,58.4c0-0.6,0-1.1-0.1-1.5c-0.1-0.5-0.2-0.9-0.4-1.2
			c-0.2-0.3-0.5-0.6-0.8-0.8c-0.3-0.2-0.8-0.3-1.3-0.3c-0.5,0-0.9,0.1-1.2,0.3c-0.4,0.2-0.6,0.4-0.9,0.8c-0.2,0.3-0.4,0.7-0.5,1.2
			c-0.1,0.5-0.2,1-0.2,1.6c0,0.6,0,1.1,0.1,1.5c0.1,0.5,0.2,0.9,0.4,1.2c0.2,0.3,0.5,0.6,0.8,0.8c0.4,0.2,0.8,0.3,1.3,0.3
			c0.5,0,0.9-0.1,1.2-0.3c0.4-0.2,0.6-0.4,0.9-0.7s0.4-0.7,0.5-1.2C208.9,59.5,208.9,59,208.9,58.4z"/>
		<path class="st0" d="M224.7,53.6c0,0.4,0,0.7-0.1,0.9c-0.1,0.2-0.2,0.3-0.3,0.3H223c0.2,0.2,0.3,0.4,0.4,0.7
			c0.1,0.3,0.1,0.5,0.1,0.8c0,0.7-0.1,1.2-0.3,1.7s-0.5,0.9-0.9,1.3c-0.4,0.3-0.9,0.6-1.5,0.8c-0.6,0.2-1.2,0.3-1.9,0.3
			c-0.4,0-0.7,0-1-0.1c-0.3-0.1-0.6-0.2-0.8-0.3c-0.1,0.1-0.2,0.2-0.3,0.4c-0.1,0.2-0.1,0.3-0.1,0.5c0,0.2,0.1,0.4,0.3,0.6
			c0.2,0.2,0.5,0.2,0.9,0.3l2.7,0.1c0.6,0,1.2,0.1,1.7,0.3c0.5,0.2,0.9,0.4,1.3,0.7c0.3,0.3,0.6,0.6,0.8,1c0.2,0.4,0.3,0.8,0.3,1.3
			c0,0.6-0.1,1.1-0.4,1.6c-0.2,0.5-0.6,0.9-1.1,1.3c-0.5,0.4-1.1,0.6-1.8,0.9c-0.7,0.2-1.6,0.3-2.6,0.3c-1,0-1.8-0.1-2.4-0.2
			c-0.7-0.2-1.2-0.4-1.7-0.6c-0.4-0.3-0.7-0.6-0.9-1c-0.2-0.4-0.3-0.8-0.3-1.2c0-0.3,0-0.5,0.1-0.8c0.1-0.3,0.2-0.5,0.3-0.7
			c0.1-0.2,0.3-0.4,0.5-0.7c0.2-0.2,0.4-0.4,0.7-0.6c-0.4-0.2-0.6-0.5-0.8-0.8c-0.2-0.3-0.3-0.7-0.3-1.1c0-0.5,0.1-0.9,0.3-1.3
			c0.2-0.4,0.5-0.8,0.9-1.1c-0.3-0.3-0.5-0.6-0.7-1.1c-0.2-0.4-0.3-0.9-0.3-1.5c0-0.7,0.1-1.2,0.3-1.8s0.6-0.9,1-1.3
			c0.4-0.4,0.9-0.6,1.5-0.8c0.6-0.2,1.2-0.3,1.9-0.3c0.4,0,0.7,0,1,0.1c0.3,0,0.6,0.1,0.9,0.2h3.6c0.1,0,0.3,0.1,0.3,0.3
			C224.7,52.8,224.7,53.2,224.7,53.6z M221.4,65.2c0-0.4-0.2-0.7-0.5-0.9c-0.3-0.2-0.7-0.3-1.2-0.3l-2.2-0.1
			c-0.2,0.2-0.4,0.3-0.5,0.5c-0.1,0.1-0.2,0.3-0.3,0.4c-0.1,0.1-0.1,0.3-0.2,0.4c0,0.1,0,0.3,0,0.4c0,0.4,0.2,0.7,0.6,1
			c0.4,0.2,1,0.3,1.8,0.3c0.5,0,0.9,0,1.2-0.1c0.3-0.1,0.6-0.2,0.8-0.4c0.2-0.2,0.3-0.3,0.4-0.5C221.4,65.6,221.4,65.4,221.4,65.2z
			 M220.7,56.2c0-0.6-0.2-1.1-0.5-1.4c-0.3-0.3-0.8-0.5-1.4-0.5c-0.3,0-0.6,0.1-0.8,0.2c-0.2,0.1-0.4,0.2-0.6,0.4
			c-0.2,0.2-0.3,0.4-0.3,0.6c-0.1,0.2-0.1,0.5-0.1,0.7c0,0.6,0.2,1,0.5,1.3c0.3,0.3,0.8,0.5,1.4,0.5c0.3,0,0.6-0.1,0.8-0.2
			c0.2-0.1,0.4-0.2,0.6-0.4c0.2-0.2,0.3-0.4,0.4-0.6C220.7,56.7,220.7,56.5,220.7,56.2z"/>
		<path class="st0" d="M230.2,49c0,0.6-0.1,1.1-0.4,1.3c-0.3,0.2-0.7,0.4-1.4,0.4c-0.7,0-1.2-0.1-1.4-0.4c-0.2-0.2-0.4-0.7-0.4-1.3
			c0-0.6,0.1-1.1,0.4-1.3c0.3-0.2,0.7-0.4,1.4-0.4c0.7,0,1.2,0.1,1.4,0.4C230.1,48,230.2,48.4,230.2,49z M230,64
			c0,0.1,0,0.2-0.1,0.2c-0.1,0.1-0.1,0.1-0.3,0.2c-0.1,0-0.3,0.1-0.5,0.1c-0.2,0-0.5,0-0.8,0c-0.3,0-0.6,0-0.8,0
			c-0.2,0-0.4-0.1-0.5-0.1c-0.1,0-0.2-0.1-0.3-0.2c-0.1-0.1-0.1-0.1-0.1-0.2V52.8c0-0.1,0-0.2,0.1-0.2c0-0.1,0.1-0.1,0.3-0.2
			c0.1,0,0.3-0.1,0.5-0.1c0.2,0,0.5,0,0.8,0c0.3,0,0.6,0,0.8,0c0.2,0,0.4,0.1,0.5,0.1c0.1,0,0.2,0.1,0.3,0.2c0,0.1,0.1,0.1,0.1,0.2
			V64z"/>
		<path class="st0" d="M243.5,58.1c0,0.4-0.1,0.7-0.3,0.9c-0.2,0.2-0.4,0.3-0.7,0.3h-6.8c0,0.5,0.1,0.9,0.2,1.3
			c0.1,0.4,0.3,0.7,0.5,1s0.6,0.5,1,0.6c0.4,0.1,0.9,0.2,1.4,0.2c0.6,0,1,0,1.5-0.1c0.4-0.1,0.8-0.2,1.1-0.3
			c0.3-0.1,0.6-0.2,0.8-0.3c0.2-0.1,0.4-0.1,0.5-0.1c0.1,0,0.1,0,0.2,0c0,0,0.1,0.1,0.1,0.2c0,0.1,0.1,0.2,0.1,0.3
			c0,0.1,0,0.3,0,0.5c0,0.2,0,0.3,0,0.5c0,0.1,0,0.2,0,0.3c0,0.1,0,0.2-0.1,0.2c0,0.1-0.1,0.1-0.1,0.2c-0.1,0.1-0.2,0.1-0.4,0.2
			c-0.2,0.1-0.6,0.2-0.9,0.3c-0.4,0.1-0.8,0.2-1.3,0.3c-0.5,0.1-1,0.1-1.6,0.1c-1,0-1.9-0.1-2.6-0.4c-0.7-0.3-1.4-0.6-1.9-1.1
			c-0.5-0.5-0.9-1.2-1.1-1.9c-0.2-0.8-0.4-1.7-0.4-2.7c0-1,0.1-1.9,0.4-2.7s0.6-1.5,1.1-2c0.5-0.6,1.1-1,1.8-1.3
			c0.7-0.3,1.5-0.4,2.4-0.4c0.9,0,1.7,0.1,2.4,0.4c0.7,0.3,1.2,0.7,1.6,1.1c0.4,0.5,0.7,1.1,0.9,1.7c0.2,0.7,0.3,1.4,0.3,2.2V58.1z
			 M240.4,57.2c0-0.9-0.2-1.6-0.5-2.1c-0.4-0.5-1-0.8-1.8-0.8c-0.4,0-0.8,0.1-1,0.2c-0.3,0.2-0.5,0.4-0.7,0.6
			c-0.2,0.3-0.3,0.6-0.5,0.9c-0.1,0.3-0.2,0.7-0.2,1.1H240.4z"/>
		<path class="st0" d="M254,60.8c0,0.6-0.1,1.2-0.4,1.7c-0.2,0.5-0.6,0.9-1,1.2c-0.4,0.3-0.9,0.6-1.5,0.7c-0.6,0.2-1.2,0.2-1.9,0.2
			c-0.4,0-0.8,0-1.2-0.1c-0.4-0.1-0.7-0.1-1-0.2c-0.3-0.1-0.6-0.2-0.8-0.3c-0.2-0.1-0.3-0.2-0.4-0.3c-0.1-0.1-0.2-0.2-0.2-0.4
			c0-0.2-0.1-0.5-0.1-0.8c0-0.2,0-0.4,0-0.6c0-0.1,0-0.3,0.1-0.4c0-0.1,0.1-0.1,0.1-0.2c0,0,0.1,0,0.2,0c0.1,0,0.2,0.1,0.4,0.2
			s0.4,0.2,0.7,0.3c0.3,0.1,0.6,0.2,0.9,0.4c0.4,0.1,0.8,0.2,1.2,0.2c0.3,0,0.5,0,0.8-0.1c0.2-0.1,0.4-0.1,0.6-0.3
			c0.2-0.1,0.3-0.2,0.4-0.4c0.1-0.2,0.1-0.4,0.1-0.6c0-0.3-0.1-0.5-0.2-0.6c-0.2-0.2-0.4-0.3-0.6-0.5c-0.3-0.1-0.5-0.3-0.9-0.4
			c-0.3-0.1-0.7-0.2-1-0.4c-0.3-0.1-0.7-0.3-1-0.5c-0.3-0.2-0.6-0.4-0.9-0.7c-0.3-0.3-0.5-0.6-0.6-1c-0.2-0.4-0.2-0.8-0.2-1.4
			c0-0.5,0.1-1,0.3-1.5c0.2-0.4,0.5-0.8,0.9-1.1c0.4-0.3,0.9-0.6,1.4-0.7c0.6-0.2,1.2-0.3,1.9-0.3c0.4,0,0.7,0,1,0.1
			c0.3,0.1,0.6,0.1,0.9,0.2c0.3,0.1,0.5,0.2,0.7,0.2c0.2,0.1,0.3,0.2,0.4,0.2c0.1,0.1,0.1,0.1,0.2,0.2c0,0.1,0.1,0.1,0.1,0.2
			c0,0.1,0,0.2,0,0.3c0,0.1,0,0.3,0,0.5c0,0.2,0,0.4,0,0.6c0,0.1,0,0.3-0.1,0.3c0,0.1-0.1,0.1-0.1,0.2c0,0-0.1,0-0.2,0
			c-0.1,0-0.2,0-0.4-0.1c-0.2-0.1-0.4-0.2-0.6-0.3c-0.2-0.1-0.5-0.2-0.8-0.3c-0.3-0.1-0.7-0.1-1.1-0.1c-0.3,0-0.5,0-0.7,0.1
			c-0.2,0.1-0.4,0.1-0.5,0.3c-0.1,0.1-0.2,0.2-0.3,0.4c-0.1,0.1-0.1,0.3-0.1,0.5c0,0.3,0.1,0.5,0.2,0.7c0.2,0.2,0.4,0.3,0.6,0.5
			c0.3,0.1,0.6,0.3,0.9,0.4c0.3,0.1,0.7,0.2,1,0.4c0.3,0.1,0.7,0.3,1,0.5c0.3,0.2,0.6,0.4,0.9,0.7c0.3,0.3,0.5,0.6,0.6,1
			C253.9,59.9,254,60.3,254,60.8z"/>
		<path class="st0" d="M158,40.9c0.1,0.2,0.2,0.4,0.2,0.6c0,0.1,0,0.3-0.1,0.3c-0.1,0.1-0.2,0.1-0.5,0.1c-0.2,0-0.5,0-0.9,0
			c-0.3,0-0.6,0-0.8,0c-0.2,0-0.3,0-0.4-0.1c-0.1,0-0.2-0.1-0.2-0.1c0-0.1-0.1-0.1-0.1-0.2l-2.5-4.9l-2.5,4.9c0,0.1-0.1,0.2-0.1,0.2
			c0,0.1-0.1,0.1-0.2,0.1c-0.1,0-0.3,0.1-0.4,0.1c-0.2,0-0.4,0-0.8,0c-0.4,0-0.6,0-0.8,0c-0.2,0-0.3-0.1-0.4-0.1
			c-0.1-0.1-0.1-0.2,0-0.3c0-0.1,0.1-0.3,0.3-0.6l3.2-5.9l-3-5.5c-0.1-0.2-0.5-0.8-0.5-1c0-0.1,0-0.2,0.1-0.3
			c0.1-0.1,0.1-0.1,0.4-0.1c0.2,0,0.9,0.1,1.3,0.2c0.3,0,0.6,0.1,0.8,0.1c0.2,0,0.3,0.1,0.4,0.1c0.1,0,0.2,0.1,0.2,0.1
			c0,0.1,0.1,0.1,0.1,0.2l2.4,4.5l2.3-4.5c0-0.1,0.1-0.2,0.1-0.2c0-0.1,0.1-0.1,0.2-0.1c0.1,0,2-0.4,2.2-0.4c0.2,0,0.3,0.1,0.4,0.1
			c0.1,0.1,0.1,0.2,0.1,0.3c0,0.1-0.4,0.7-0.5,0.9l-3,5.5L158,40.9z"/>
		<path class="st0" d="M197.1,40.9c0.1,0.2,0.2,0.4,0.2,0.6c0,0.1,0,0.3-0.1,0.3c-0.1,0.1-0.2,0.1-0.5,0.1c-0.2,0-0.5,0-0.9,0
			c-0.3,0-0.6,0-0.8,0c-0.2,0-0.3,0-0.4-0.1c-0.1,0-0.2-0.1-0.2-0.1c0-0.1-0.1-0.1-0.1-0.2l-2.5-4.9l-2.5,4.9c0,0.1-0.1,0.2-0.1,0.2
			c0,0.1-0.1,0.1-0.2,0.1c-0.1,0-0.3,0.1-0.4,0.1s-0.4,0-0.8,0c-0.4,0-0.6,0-0.8,0c-0.2,0-0.3-0.1-0.4-0.1c-0.1-0.1-0.1-0.2,0-0.3
			c0-0.1,0.1-0.3,0.3-0.6l3.2-5.9l-3-5.6c-0.1-0.2-0.5-0.8-0.5-1c0-0.1,0-0.3,0.1-0.3c0.1-0.1,0.1-0.1,0.4-0.1
			c0.2,0,0.9,0.1,1.3,0.2c0.3,0,0.6,0.1,0.8,0.1c0.2,0,0.3,0.1,0.4,0.1c0.1,0,0.2,0.1,0.2,0.1c0,0.1,0.1,0.1,0.1,0.2l2.4,4.5
			l2.3-4.5c0-0.1,0.1-0.2,0.1-0.2c0-0.1,0.1-0.1,0.2-0.1c0.1,0,2-0.4,2.2-0.4c0.2,0,0.3,0.1,0.4,0.1c0.1,0.1,0.1,0.2,0.1,0.3
			c0,0.1-0.4,0.7-0.5,0.9l-3,5.5L197.1,40.9z"/>
	</g>
	<path class="st0" d="M34.2,51.3c0,0.5-0.1,0.9-0.2,1.2c-0.2,0.4-0.4,0.7-0.6,0.9c-0.3,0.2-0.6,0.4-1,0.5c-0.4,0.1-0.7,0.2-1.1,0.2
		h-3.3c-0.7,0-1.3-0.1-1.8-0.2c-0.5-0.1-1-0.4-1.4-0.8c-0.4-0.4-0.8-0.9-1.2-1.5c-0.4-0.6-0.8-1.4-1.3-2.4l-9.6-18.1
		c-0.3-0.5-0.5-1-0.8-1.6c-0.3-0.6-0.2-0.4-0.5-1c-0.8-1.7-1.9-1.2-1.9-0.2c0,0.7,0,1.3,0,2c0,0.8,0,1.6,0,2.4v20.2
		c0,0.2-0.1,0.4-0.2,0.5c-0.1,0.2-0.3,0.3-0.6,0.4c-0.3,0.1-0.6,0.2-1.1,0.3c-0.5,0.1-1,0.1-1.8,0.1c-0.7,0-1.3,0-1.7-0.1
		C3.6,54.1,3.3,54,3,53.9c-0.3-0.1-0.4-0.2-0.5-0.4c-0.1-0.2-0.1-0.3-0.1-0.5V18.2c0-0.9,0.3-1.6,0.8-2.1c0.5-0.5,1.2-0.7,2-0.7h4.2
		c0.8,0,1.4,0.1,1.9,0.2c0.5,0.1,1,0.3,1.4,0.6c0.4,0.3,0.8,0.7,1.2,1.2c0.4,0.5,0.7,1.2,1.1,2l7.5,14.1c0.4,0.9,0.9,1.7,1.3,2.5
		c0.4,0.8,0.8,1.7,1.2,2.5c0.1,0.3,0.3,0.5,0.4,0.8c0.5,1.1,1.8,1.4,1.8-0.3c0-1.5,0-3,0-4.3V16.5c0-0.2,0.1-0.4,0.2-0.5
		c0.1-0.2,0.3-0.3,0.6-0.4c0.3-0.1,0.6-0.2,1.1-0.3c0.5,0,1-0.1,1.8-0.1c0.7,0,1.2,0,1.7,0.1c0.5,0.1,0.8,0.1,1.1,0.3
		c0.2,0.1,0.4,0.3,0.5,0.4c0.1,0.2,0.1,0.3,0.1,0.5V51.3z"/>
</g>
</svg>
